<?xml version="1.0" standalone="no"?>
<!DOCTYPE svg PUBLIC "-//W3C//DTD SVG 20010904//EN"
 "http://www.w3.org/TR/2001/REC-SVG-20010904/DTD/svg10.dtd">
<svg version="1.0" xmlns="http://www.w3.org/2000/svg"
 width="1200.000000pt" height="1200.000000pt" viewBox="0 0 1200.000000 1200.000000"
 preserveAspectRatio="xMidYMid meet">

<g transform="translate(0.000000,1200.000000) scale(0.100000,-0.100000)"
fill="#000000" stroke="none">
<path d="M7090 6000 l0 -400 1375 0 1375 0 0 400 0 400 -1375 0 -1375 0 0
-400z"/>
<path d="M2327 6273 c-4 -3 -7 -129 -7 -280 l0 -273 158 0 c184 0 246 13 285
60 57 67 42 161 -36 215 -19 13 -19 16 -6 27 52 42 66 135 29 195 -34 56 -60
63 -248 63 -93 0 -172 -3 -175 -7z m274 -133 c11 -6 19 -21 19 -35 0 -32 -26
-45 -89 -45 l-51 0 0 45 0 45 51 0 c28 0 59 -5 70 -10z m27 -212 c17 -17 15
-44 -4 -62 -11 -11 -35 -16 -80 -16 l-64 0 0 45 0 45 68 0 c40 0 73 -5 80 -12z"/>
<path d="M3130 6013 c-51 -148 -95 -274 -98 -280 -3 -10 16 -13 75 -13 l79 0
18 55 17 55 73 0 73 0 15 -52 15 -53 77 -3 c71 -3 77 -1 74 16 -2 10 -43 136
-93 280 l-90 262 -71 0 -71 0 -93 -267z m202 -58 c3 -17 -4 -20 -39 -23 -51
-4 -50 -4 -21 92 l21 71 18 -60 c10 -33 20 -69 21 -80z"/>
<path d="M3820 6000 l0 -280 75 0 74 0 3 132 3 133 105 -130 105 -130 63 -3
62 -3 0 281 0 280 -75 0 -75 0 0 -136 c0 -80 -4 -133 -9 -129 -5 3 -55 64
-111 135 l-102 130 -59 0 -59 0 0 -280z"/>
<path d="M4620 5999 l0 -281 149 4 c142 4 152 6 207 34 73 37 117 98 132 183
22 122 -20 237 -105 291 -60 39 -121 50 -263 50 l-120 0 0 -281z m295 108 c20
-20 36 -48 40 -70 11 -57 -3 -107 -40 -144 -29 -29 -40 -33 -84 -33 l-51 0 0
140 0 140 51 0 c44 0 55 -4 84 -33z"/>
<path d="M5400 6000 l0 -280 75 0 75 0 0 85 0 85 28 0 c25 0 34 -10 76 -85
l48 -85 89 0 90 0 -28 48 c-15 26 -42 72 -59 102 l-33 55 24 25 c93 97 62 255
-60 311 -33 15 -65 19 -182 19 l-143 0 0 -280z m268 128 c7 -7 12 -26 12 -43
0 -44 -16 -55 -77 -55 l-53 0 0 55 0 55 53 0 c29 0 58 -5 65 -12z"/>
<path d="M6190 6013 c-51 -148 -95 -274 -98 -280 -3 -10 16 -13 75 -13 l79 0
18 55 17 55 73 0 73 0 15 -52 15 -53 77 -3 c71 -3 77 -1 74 16 -2 10 -43 136
-93 280 l-90 262 -71 0 -71 0 -93 -267z m202 -58 c3 -17 -4 -20 -39 -23 -51
-4 -50 -4 -21 92 l21 71 18 -60 c10 -33 20 -69 21 -80z"/>
</g>
</svg>
