<?xml version="1.0" encoding="utf-8"?>
<svg xmlns="http://www.w3.org/2000/svg" xmlns:xlink="http://www.w3.org/1999/xlink" version= "1.1" width="1618px" height="1000px" viewBox="-449 211 1618 1000">
<g id="layer1">
<g style="fill:rgb(129,195,235); fill-opacity:1.0; stroke-linejoin: miter">
<path d="M-449.001,209.87538C-449.299,209.87538,-449.5848,209.99376,-449.79553,210.20448C-450.00626,210.4152,-450.1246,210.70099,-450.1246,210.999L-450.1236,1211.0C-450.1236,1211.6206,-449.62054,1212.1237,-449.0,1212.1237L1169.001,1212.1246C1169.299,1212.1246,1169.5848,1212.0062,1169.7955,1211.7955C1170.0062,1211.5848,1170.1246,1211.299,1170.1246,1211.001L1170.1237,211.0C1170.1237,210.37944,1169.6206,209.87639,1169.0,209.87639L-449.001,209.87538 Z"/>
</g>
<g style="fill:rgb(255,250,168); fill-opacity:1.0; stroke-linejoin: miter">
<path d="M526.96454,382.26624L700.5883,382.26672L874.2121,382.26724Q874.2121,692.056,874.2121,1001.84485Q700.5883,1001.84534,526.96454,1001.84576Q526.96454,692.056,526.96454,382.26624"/>
</g>
<g style="fill:rgb(180,97,53); fill-opacity:1.0; stroke-linejoin: miter">
<path d="M745.377,435.8328L745.377,553.40186L843.23816,553.4022L843.23816,435.8328L745.377,435.83313 Z"/>
</g>
<g style="fill:rgb(135,182,221); fill-opacity:1.0; stroke-linejoin: miter">
<path d="M759.20776,449.66333L759.20776,539.5713L829.40735,539.57166L829.40735,449.66333L759.20776,449.66367 Z"/>
</g>
<g style="fill:rgb(0,0,0); fill-opacity:1.0; stroke-linejoin: miter">
<path d="M785.9761,516.26715L785.6404,516.45605Q784.1419,517.30194,782.77246,517.9488Q776.4397,520.6659,774.6406,521.7056Q771.1546,523.76776,769.97375,525.1568Q767.54645,527.7312,766.29816,531.3859Q765.1891,534.368,764.00397,540.47736L826.8799,540.4529Q824.0058,532.2855,820.40576,527.62537Q816.7582,522.99457,808.34753,518.24506Q807.07513,517.50104,805.7916,516.7639L785.9761,516.26715"/>
</g>
<g style="fill:rgb(255,250,168); fill-opacity:1.0; stroke-linejoin: miter">
<path d="M228.28076,382.2662L54.65712,382.26575L-118.96652,382.26526Q-118.96652,692.0552,-118.96652,1001.84503Q54.65712,1001.84454,228.28076,1001.844Q228.28076,692.0551,228.28076,382.2662"/>
</g>
<g style="fill:rgb(84,124,149); fill-opacity:1.0; stroke-linejoin: miter">
<path d="M-122.10898,359.59677L-122.10898,359.59677L234.65375,359.59778C241.74301,359.5978,247.48999,365.3448,247.48999,372.43405L247.48999,372.43405L247.48999,949.944C247.48999,957.03326,241.74301,962.7803,234.65375,962.7803L234.65375,962.7803L-122.10898,962.78125C-125.51338,962.78125,-128.77835,961.4289,-131.18562,959.0216C-133.5929,956.6143,-134.9453,953.34937,-134.9453,949.94495L-134.9453,949.94495L-134.9453,372.43304C-134.9453,369.02866,-133.5929,365.76367,-131.18562,363.3564C-128.77835,360.94916,-125.51338,359.59677,-122.10898,359.59677L-122.10898,359.59677 M-122.109055,385.26932L-109.272736,372.43304L-109.272736,949.94495L-122.109055,937.10864L234.65369,937.10767L221.81744,949.944L221.81744,372.43405L234.65369,385.27032L-122.109055,385.26932 Z"/>
</g>
<g style="fill:rgb(84,124,149); fill-opacity:1.0; stroke-linejoin: miter">
<path d="M517.38,359.72476L517.38,359.72476L884.75226,359.72577C891.84155,359.7258,897.5885,365.47278,897.5885,372.56204L897.5885,372.56204L897.5885,973.67017C897.5885,980.75946,891.84155,986.5065,884.75226,986.5065L884.75226,986.5065L517.38,986.50745C513.9756,986.50745,510.71063,985.1551,508.30334,982.7478C505.89606,980.3405,504.54367,977.07556,504.54367,973.67114L504.54367,973.67114L504.54367,372.56104C504.54367,369.15665,505.89606,365.89166,508.30334,363.4844C510.71063,361.07715,513.9756,359.72476,517.38,359.72476L517.38,359.72476 M517.3799,385.3973L530.21625,372.56104L530.21625,973.67114L517.3799,960.83484L884.75214,960.83386L871.9159,973.67017L871.9159,372.56204L884.75214,385.39832L517.3799,385.3973 Z"/>
</g>
<g style="fill:rgb(36,58,64); fill-opacity:1.0; stroke-linejoin: miter">
<path d="M-202.18936,998.9308L53.01654,998.9313L308.22244,998.93176Q308.22244,1022.505,308.22244,1046.0782Q53.01654,1046.0787,-202.18936,1046.0792Q-202.18936,1022.505,-202.18936,998.9308"/>
</g>
<g style="fill:rgb(36,58,64); fill-opacity:1.0; stroke-linejoin: miter">
<path d="M445.01132,998.9308L700.2172,998.9313L955.4231,998.93176Q955.4231,1022.505,955.4231,1046.0782Q700.2172,1046.0787,445.01132,1046.0792Q445.01132,1022.505,445.01132,998.9308"/>
</g>
<g style="fill:rgb(0,0,0); fill-opacity:0.99607843; stroke-linejoin: miter">
<path d="M225.28421,568.6802L213.69264,537.7864Q201.42207,517.9217,200.44781,505.34836Q199.3883,495.8167,201.58217,486.23993Q202.30855,483.13013,203.38171,480.2628L204.53972,477.48697Q205.78351,474.78723,207.36304,472.5155Q214.42334,462.0174,231.79565,461.02896Q236.76714,460.76678,240.85565,461.86752L261.15714,470.74805L225.28421,568.6802"/>
</g>
<g style="fill:rgb(83,150,190); fill-opacity:0.99607843; stroke-linejoin: miter">
<path d="M159.4675,313.62756L159.46742,313.62805L159.46735,313.62857L159.46742,313.62805L159.4675,313.62756L159.46742,313.62805L159.46735,313.62857Q159.46742,313.62805,159.4675,313.62756"/>
</g>
<g style="fill:rgb(253,189,153); fill-opacity:1.0; stroke-linejoin: miter">
<path d="M486.67688,585.9895L484.3014,583.0707Q473.5949,569.87164,468.40558,565.31635Q461.8405,559.36475,457.7683,559.5375Q455.70026,559.6493,454.86383,560.1179Q453.75784,560.5938,452.81055,561.38184Q449.9574,563.8973,448.64374,567.8619Q445.95102,577.05554,450.48227,583.36536Q452.23584,585.82764,455.46716,586.69946Q457.7804,587.4159,463.5389,586.82196L478.54416,598.5852L486.67688,585.9895 Z"/>
</g>
<g style="fill:rgb(0,0,0); fill-opacity:1.0; stroke-linejoin: miter">
<path d="M617.79065,441.29984Q623.43396,440.78235,627.77136,442.80554Q629.82947,443.69485,632.64514,445.40527Q643.40717,451.9772,644.7273,453.0921Q654.221,459.6989,655.5992,468.5597Q657.74084,481.02112,650.2731,496.23276Q644.45013,508.40277,631.8425,515.3708L604.1908,461.59253L601.27673,453.85532Q597.6041,451.18774,597.4719,449.52036Q597.0819,446.73453,601.457,444.99237Q609.7808,442.1656,617.7263,441.30463 Z"/>
</g>
<g style="fill:rgb(253,189,153); fill-opacity:1.0; stroke-linejoin: miter">
<path d="M603.5202,457.10736L606.7001,457.53085L616.9498,461.81436Q616.08997,466.637,617.7874,468.10925Q618.4376,468.76654,619.43304,469.15768Q625.127,470.79303,625.85645,471.36005Q627.742,472.37732,628.6171,473.87817Q629.8839,475.83096,629.6433,480.1025Q629.7268,482.46332,627.0627,495.26816Q626.7732,497.44894,627.3337,497.89478Q627.9752,498.61044,631.00635,495.76956Q630.4823,489.73822,633.55536,488.66763Q636.2998,487.5665,639.1796,488.30325Q641.85657,489.121,642.3038,491.19296Q643.383,494.19058,637.5122,505.8414Q640.85754,507.25113,640.6426,508.31055Q640.82446,509.2176,638.80023,512.1126L636.57135,521.00165L638.4063,526.8244L622.4229,546.41907L602.5389,530.1126L603.40826,519.55255Q602.57306,521.14343,591.2109,520.26587Q587.0266,519.76575,586.5548,517.06946L585.9226,511.2733L586.7724,503.7074L589.606,495.28778Q582.9508,492.69522,582.9543,488.13208Q583.0806,487.57343,583.8459,487.11816Q585.24866,486.8043,588.7286,484.9721Q591.78107,481.774,592.9331,479.97052Q594.27637,477.9402,594.91595,475.6062Q595.45386,474.04364,596.1462,468.22867Q596.4289,466.89294,596.9563,465.76974Q598.0627,463.1784,603.4441,457.19397 Z"/>
</g>
<g style="fill:rgb(255,255,255); fill-opacity:1.0; stroke-linejoin: miter">
<path d="M601.8315,525.65326L621.722,532.199L638.7088,524.4657L662.13007,541.23315L664.74835,644.29724L643.53314,709.24774L607.4128,715.4349L561.09283,690.0329L572.7424,577.9926L591.3321,535.81024L601.7889,525.69415 Z"/>
</g>
<g style="fill:rgb(255,255,255); fill-opacity:1.0; stroke-linejoin: miter">
<path d="M674.3989,671.7722L680.3493,671.6475L687.4771,669.3214L698.70514,684.24744L692.0715,684.5138L689.0625,683.0768L677.11896,687.14636L674.39954,671.77795 Z"/>
</g>
<g style="fill:rgb(14,7,1); fill-opacity:1.0; stroke-linejoin: miter">
<path d="M605.8183,780.09467L590.48926,827.09265L617.3751,843.3952L612.45123,780.422L606.44635,780.0848 M602.6857,528.6733L602.6858,528.67456L602.68585,528.67523L601.02734,545.98627L596.0261,598.2054L590.36786,680.2621C597.2819,682.039,599.69806,687.34296,627.49396,686.3125L653.50055,686.9953L670.43506,682.44006L653.34033,769.4136C650.2217,817.86084,649.30896,854.75995,650.60065,880.1101L656.37756,883.25854C648.66254,911.4865,643.61035,931.83295,641.21954,944.2972C636.9423,949.16656,628.5602,948.4992,616.0737,942.2944C611.8826,929.18335,612.4755,914.5261,617.85333,898.3229L611.2228,889.5797L559.23816,847.5846L551.43866,836.28644C548.28827,832.234,549.9657,793.5914,556.4699,720.35876L539.63806,713.698L561.2643,605.97595C560.3192,605.45825,550.9022,614.73047,533.01447,633.7928L522.4901,636.84644C491.32755,615.80835,473.59314,602.5626,469.28674,597.1094L475.74194,588.3671L483.39456,576.6615L520.2684,605.2735C535.19025,595.2613,549.56384,572.523,563.3895,537.05853C586.0691,530.0021,599.0172,526.12555,602.23285,525.4283L602.6857,528.6733L602.6858,528.67456 Z"/>
</g>
<g style="fill:rgb(14,7,1); fill-opacity:1.0; stroke-linejoin: miter">
<path d="M637.75226,524.1879L647.804,529.7339L686.76874,542.8029L701.05756,564.8006L727.051,591.5599L738.6517,605.9623C740.3277,609.6493,741.2576,612.9921,741.5837,615.9745C742.2679,622.23303,739.6467,630.1367,733.8131,639.8441C728.0804,649.38153,716.4326,665.36096,698.63586,687.6417L680.12415,667.0028L690.8867,659.20447L703.9957,642.9427L716.0413,622.1101L689.2499,594.07117L682.8716,586.84814L669.5296,676.8685L650.6793,674.32306L630.0651,694.1945L634.99554,615.3592L636.306,572.4246L637.77203,524.389 Z"/>
</g>
<g style="fill:rgb(14,7,1); fill-opacity:1.0; stroke-linejoin: miter">
<path d="M605.3632,778.16437L608.7718,780.0462L608.7718,780.04706L605.8183,780.09467L605.8004,780.1501L597.4743,805.6774L605.34955,778.2109L605.3632,778.16437 Z"/>
</g>
<g style="fill:rgb(14,7,1); fill-opacity:1.0; stroke-linejoin: miter">
<path d="M612.587,782.15247L614.0183,782.94403L616.8211,836.3154L612.587,782.15247 Z"/>
</g>
<g style="fill:rgb(14,7,1); fill-opacity:1.0; stroke-linejoin: miter">
<path d="M609.2288,838.7155L617.19495,843.429L617.2659,844.79L609.2288,838.7155 Z"/>
</g>
<g style="fill:rgb(14,7,1); fill-opacity:1.0; stroke-linejoin: miter">
<path d="M610.48596,758.8894L618.42444,850.0283L605.73944,776.01154Q595.02966,814.5892,592.53656,823.4115Q588.75366,836.87085,588.6065,836.9973Q588.4548,837.1117,592.41095,822.024Q595.1559,811.52075,605.25604,773.4566L605.2881,773.37573L605.7548,775.9475L610.4767,758.9243 Z"/>
</g>
<g style="fill:rgb(253,189,153); fill-opacity:1.0; stroke-linejoin: miter">
<path d="M633.82196,676.3265Q642.23175,669.6112,646.8969,667.97253Q651.68604,666.0418,657.6296,667.2317Q661.3874,667.8945,668.8591,670.7921L678.3977,671.6193L681.8967,685.5523L662.6338,694.6046L643.0291,695.82367L634.7367,687.4543L633.8245,676.35596 Z"/>
</g>
<g style="fill:rgb(14,7,1); fill-opacity:1.0; stroke-linejoin: miter">
<path d="M619.3016,534.32574L624.149,541.2913L620.1552,546.7162L615.51483,666.03125L606.37494,678.4303L595.0061,670.029L614.71265,546.63727L613.09973,539.2023L619.2426,534.3723 Z"/>
</g>
<g style="fill:rgb(14,7,1); fill-opacity:1.0; stroke-linejoin: miter">
<path d="M654.5404,883.2465Q672.0086,882.02625,674.3819,882.39984L675.7957,896.92316L668.5558,898.16644Q671.11743,911.75867,673.30035,917.6756Q674.3247,920.56946,675.4813,922.84625L680.3509,931.6819Q681.25214,933.5513,681.6595,935.2755Q682.867,939.44775,679.74524,945.88403Q679.97,946.38794,668.5645,964.35486Q666.6801,967.02203,664.2792,965.44696Q661.7508,963.54315,661.4478,960.33923Q661.3643,959.3345,661.6589,957.847Q663.4258,951.46704,663.3647,950.6327Q663.6194,948.482,663.08875,945.99097Q662.47345,942.098,657.0453,931.33435Q654.96405,927.49896,652.59546,925.9411Q651.66406,925.28314,650.5138,924.68494Q645.301,922.23645,644.1406,921.5153Q641.89014,920.2558,638.0065,917.7339L654.5105,883.3096 Z"/>
</g>
<g style="fill:rgb(14,7,1); fill-opacity:1.0; stroke-linejoin: miter">
<path d="M620.6501,930.9243L636.83563,943.83923Q639.9896,951.37787,641.34283,961.42523Q642.8289,972.44635,641.6467,978.41754Q640.16486,986.89716,630.843,990.0001Q625.22314,991.8554,620.7787,991.1221Q617.2555,990.50305,615.9294,987.2907Q613.8022,983.0693,615.1331,968.0666Q615.6691,961.4223,617.4677,946.7907L620.64844,930.93604 Z"/>
</g>
<g style="fill:rgb(14,7,1); fill-opacity:1.0; stroke-linejoin: miter">
<path d="M668.24976,693.1959L669.585,711.5866L669.311,728.1737L636.98395,725.041L668.2201,693.22614 Z"/>
</g>
<g style="fill:rgb(125,53,7); fill-opacity:0.07450981; stroke-linejoin: miter">
<path d="M660.6871,665.2515Q659.75433,665.9407,666.18506,669.01953L661.55835,666.4787L670.41034,670.9269L678.3977,671.6193L678.4153,671.6877L680.3493,671.6475L683.3981,670.65247L680.12415,667.0028L687.2601,661.83215L687.2618,661.8334Q690.1322,665.31335,693.42645,671.81213L684.25415,676.27405L633.9297,680.1327L633.93585,676.66113L637.6523,668.5131Q641.21826,669.83057,640.132,670.1705Q650.97235,666.38184,653.9927,661.88635L657.46783,663.9392 Z"/>
</g>
<g style="fill:rgb(255,255,255); fill-opacity:0.99607843; stroke-linejoin: miter">
<path d="M600.49414,476.05176L600.4942,476.05304L599.8434,479.14117Q602.6875,479.23178,605.53125,479.32202L600.49414,476.05176 Z"/>
</g>
<g style="fill:rgb(0,0,0); fill-opacity:0.99607843; stroke-linejoin: miter">
<path d="M600.59106,476.0337L600.49146,476.14267Q600.1825,476.46713,599.94763,476.81293Q599.77124,477.10706,599.75684,477.17178Q599.7069,477.29462,599.67944,477.42432Q599.6521,477.55493,599.64716,477.69113L599.6471,477.82883Q599.6517,477.96768,599.67267,478.11194Q599.721,478.47015,599.9324,479.15088L601.3983,477.95422L600.59106,476.0337 Z"/>
</g>
<g style="fill:rgb(0,0,0); fill-opacity:0.99607843; stroke-linejoin: miter">
<path d="M616.71295,455.33218L616.713,455.33337L616.71295,455.33218L616.713,455.33337 Z"/>
</g>
<g style="fill:rgb(134,54,8); fill-opacity:0.99607843; stroke-linejoin: miter">
<path d="M600.8348,473.74896L601.20776,473.77533Q602.33716,473.84668,603.36707,473.98917Q604.4934,474.17123,604.983,474.3761Q605.52014,474.56958,606.10834,474.97632Q606.2057,475.0345,606.6185,475.37668Q606.86444,475.5833,607.3892,476.10025L600.8348,473.74896 Z"/>
</g>
<g style="fill:rgb(134,54,8); fill-opacity:0.99607843; stroke-linejoin: miter">
<path d="M607.43634,465.56686L607.43634,465.56796L607.43585,465.568L607.43634,465.56686 Z"/>
</g>
<g style="fill:rgb(255,255,255); fill-opacity:0.99607843; stroke-linejoin: miter">
<path d="M587.62103,501.18716L587.1075,502.7132Q590.1518,502.69803,595.5111,502.35593Q592.2311,502.13232,590.62836,501.8907Q589.0503,501.63184,588.8015,501.54382Q588.23474,501.40494,587.7385,501.22794Q587.68945,501.21036,587.641,501.19186Q587.6344,501.18936,587.6278,501.18674 Z"/>
</g>
<g style="fill:rgb(253,189,153); fill-opacity:1.0; stroke-linejoin: miter">
<path d="M454.68173,560.47327L455.609,561.3739Q458.48965,564.0531,460.4816,566.9343Q461.11246,567.9025,461.546,568.915L461.91776,569.9417L462.1657,570.9965L462.27814,572.08234Q462.31555,574.8306,460.9061,577.9076Q459.1406,581.74927,455.65125,586.92114L450.46976,577.05676L454.68173,560.47327 Z"/>
</g>
<g>
<g style="fill:rgb(26,69,81); fill-opacity:1.0; stroke-linejoin: miter">
<path d="M490.1859,692.70416L490.1859,692.70416L493.07272,954.153C493.11874,958.3207,489.7775,961.7365,485.60986,961.78253C481.44223,961.82855,478.0264,958.4873,477.98038,954.31964L477.98038,954.31964L475.09357,692.8708C475.04755,688.7031,478.3888,685.2873,482.55643,685.2413C486.72406,685.19525,490.1399,688.5365,490.1859,692.70416 Z"/>
</g>
<g style="fill:rgb(26,69,81); fill-opacity:1.0; stroke-linejoin: miter">
<path d="M598.4386,692.70416L598.4386,692.70416L601.3254,954.153C601.3714,958.3207,598.03015,961.7365,593.8625,961.78253C589.6948,961.82855,586.279,958.4873,586.233,954.31964L586.233,954.31964L583.3462,692.8708C583.3002,688.7031,586.6414,685.2873,590.8091,685.2413C594.97675,685.19525,598.3926,688.5365,598.4386,692.70416 Z"/>
</g>
<g style="fill:rgb(26,69,81); fill-opacity:1.0; stroke-linejoin: miter">
<path d="M706.6912,692.70416L706.6912,692.70416L709.578,954.153C709.624,958.3207,706.2828,961.7365,702.1151,961.78253C697.94745,961.82855,694.5316,958.4873,694.4856,954.31964L694.4856,954.31964L691.5988,692.8708C691.5528,688.7031,694.89404,685.2873,699.0617,685.2413C703.2294,685.19525,706.6452,688.5365,706.6912,692.70416 Z"/>
</g>
<g style="fill:rgb(26,69,81); fill-opacity:1.0; stroke-linejoin: miter">
<path d="M923.1964,692.70416L923.1964,692.70416L926.08325,954.153C926.1293,958.3207,922.788,961.7365,918.62036,961.78253C914.4527,961.82855,911.03687,958.4873,910.99084,954.31964L910.99084,954.31964L908.104,692.8708C908.058,688.7031,911.39923,685.2873,915.5669,685.2413C919.73456,685.19525,923.1504,688.5365,923.1964,692.70416 Z"/>
</g>
<g style="fill:rgb(26,69,81); fill-opacity:1.0; stroke-linejoin: miter">
<path d="M814.94385,692.70416L814.94385,692.70416L817.8307,954.153C817.8767,958.3207,814.53546,961.7365,810.3678,961.78253C806.20013,961.82855,802.7843,958.4873,802.7383,954.31964L802.7383,954.31964L799.85144,692.8708C799.8054,688.7031,803.14667,685.2873,807.31433,685.2413C811.482,685.19525,814.8978,688.5365,814.94385,692.70416 Z"/>
</g>
</g>
<g style="fill:rgb(81,114,123); fill-opacity:1.0; stroke-linejoin: miter">
<path d="M444.70917,942.30524L700.5884,942.3057L956.46765,942.3062Q956.46765,974.18036,956.46765,1006.0545Q700.5884,1006.055,444.70917,1006.0555Q444.70917,974.18036,444.70917,942.30524"/>
</g>
<g style="fill:rgb(26,69,81); fill-opacity:1.0; stroke-linejoin: miter">
<path d="M422.0183,684.12054L700.5884,684.12103L979.15845,684.1215Q979.15845,694.23236,979.15845,704.3432Q700.5884,704.3437,422.0183,704.3442Q422.0183,694.23236,422.0183,684.12054"/>
</g>
<g style="fill:rgb(253,189,153); fill-opacity:1.0; stroke-linejoin: miter">
<path d="M162.45808,672.95386L161.28862,673.18677Q157.6916,673.7808,154.89235,675.3141Q153.9888,675.86017,153.26248,676.6148L152.59164,677.43463Q151.97057,678.31335,151.59337,679.47906Q151.22345,680.65326,151.09727,682.1147L151.021,683.63464Q151.00006,685.22,151.15639,687.014Q151.50304,691.447,153.49194,701.03345L168.58911,681.15466L162.45808,672.95386 Z"/>
</g>
<g style="fill:rgb(175,89,64); fill-opacity:0.99607843; stroke-linejoin: miter">
<path d="M168.52351,976.9103L168.4143,978.1172Q167.55435,986.1313,168.59216,989.8265Q169.57962,992.4962,170.53484,993.0251Q171.62332,993.9443,173.26244,994.2106Q174.90215,994.4749,177.13995,994.0212L184.88464,992.06287Q186.31224,991.7416,187.79153,991.5441Q189.27074,991.3466,190.77632,991.3505L192.28203,991.4242Q195.3064,991.75635,198.27301,992.89136Q199.88426,993.4259,206.73634,996.53827Q208.05759,997.1021,209.29549,997.5147Q210.53242,997.9192,211.67627,998.1438Q212.30954,998.3529,214.88762,998.4658Q215.88382,998.46,216.77637,998.3263Q217.29065,998.3239,219.21042,997.69037Q219.64574,997.5915,221.14233,996.6676Q224.37254,994.0183,224.64973,994.05695Q225.69475,993.4908,227.24753,993.5462Q228.29562,993.4499,232.1554,994.8325Q234.98242,995.9002,240.97223,998.84595L241.99069,999.1729Q244.03108,999.84406,246.02856,1000.3104Q248.026,1000.77704,249.9233,1000.766Q253.80519,1000.53784,256.14926,998.3854Q259.4098,995.64984,260.05933,992.5847Q260.32578,990.3125,258.14398,989.9983Q257.20645,990.179,257.0318,990.4025Q254.55815,992.5444,253.96791,992.54095Q253.38115,992.7529,252.64395,992.7784L251.85959,992.7379Q251.0313,992.6383,250.00142,992.2465Q245.2737,990.3455,234.84927,982.35443L168.52351,976.9103 Z"/>
</g>
<g style="fill:rgb(237,23,75); fill-opacity:1.0; stroke-linejoin: miter">
<path d="M208.18423,555.3039L203.62604,556.34686Q186.10806,560.16595,179.58011,563.9566Q173.53697,567.9981,171.95575,574.3883Q168.21147,585.5626,165.3267,622.749L183.64778,638.3276L186.01038,647.0823L177.9507,658.7514L177.1156,654.85925L185.37315,634.4834L167.99031,608.0715Q158.9123,651.4041,158.60112,662.5435Q157.53549,675.56146,163.85994,680.5437Q145.33571,703.31067,144.70586,722.37976Q141.99332,741.6253,152.7349,799.3234L156.93011,822.1721L163.00487,823.3518Q169.57533,846.6503,170.41956,865.99274Q171.21959,882.4685,167.69354,904.79944Q163.66907,930.7314,152.10081,978.579Q183.2958,980.448,266.84576,987.0698L263.1711,930.7414L254.32109,848.6734L261.06512,849.13477Q262.9864,818.78546,261.16193,803.08484Q260.6601,785.79553,239.943,717.05975L237.5584,676.0424Q243.79977,674.18726,246.57077,669.86346Q247.76114,667.871,248.51302,664.9758Q251.89612,647.77155,252.57144,646.7813Q253.80536,642.64465,256.88745,635.7414L258.98697,631.1675Q269.86578,619.84546,271.17523,614.86615Q274.97137,606.6284,263.88895,591.12177Q270.81152,582.85785,270.40244,576.00256Q259.78946,542.8902,208.18423,555.3039 Z"/>
</g>
<g style="fill:rgb(253,189,153); fill-opacity:1.0; stroke-linejoin: miter">
<path d="M205.07303,557.9156L206.58583,558.11444Q216.40375,559.19885,223.36755,562.2243Q229.54573,564.7515,242.22977,574.27527Q239.83272,568.45,239.86855,563.08295Q239.68404,558.1538,241.78352,543.3863Q263.7006,548.138,266.54172,542.7897Q267.85394,541.0746,266.7398,535.95996Q269.41144,534.6553,269.82727,532.7373Q269.8788,531.546,268.25888,529.8784Q271.58627,528.67535,271.45834,527.45416Q271.65012,526.34344,268.45068,522.8825Q273.6608,520.9777,272.98944,518.84174Q272.6365,516.85144,267.9167,512.1568Q267.19077,511.21378,266.8231,509.88052Q266.49103,508.0654,266.59192,507.50833L267.49225,500.6021Q267.79752,497.16043,267.6885,496.38123Q267.6367,493.44232,266.50867,490.38824Q263.7594,483.54144,254.40717,473.40836Q247.30132,476.69476,244.33046,479.96957Q243.3072,481.18268,242.57573,482.50516Q239.79109,488.20636,238.55046,489.76172Q230.75307,500.05573,224.27621,508.90576Q219.46013,505.48386,217.60852,509.23874Q215.00714,514.09106,218.5827,519.846L214.65045,531.61847Q214.62726,538.7771,213.63432,542.0265Q212.4525,547.3548,205.07303,557.9156 Z"/>
</g>
<g style="fill:rgb(0,0,0); fill-opacity:0.99607843; stroke-linejoin: miter">
<path d="M261.51566,502.27185L261.51566,502.27286Q259.807,502.21945,258.9226,502.27737Q258.56726,502.2983,258.22726,502.33987L257.8918,502.3876Q257.5607,502.44107,257.25046,502.52258Q256.6113,502.68152,255.82515,503.09485Q255.06862,503.50574,254.07668,504.2365L261.51566,502.27185 Z"/>
</g>
<g style="fill:rgb(255,255,255); fill-opacity:0.99607843; stroke-linejoin: miter">
<path d="M260.38947,506.57156L254.86076,508.9647L260.86633,509.6658Q261.08594,508.801,260.9879,508.27698Q260.927,507.76938,260.38947,506.57156 Z"/>
</g>
<g style="fill:rgb(0,0,0); fill-opacity:0.99607843; stroke-linejoin: miter">
<path d="M260.53967,506.56317L258.0677,508.59717L260.81686,509.76843Q261.14163,508.88412,261.07495,508.34085Q261.07086,508.1464,260.92828,507.63376Q260.81973,507.26486,260.53967,506.56317 Z"/>
</g>
<g style="fill:rgb(26,69,81); fill-opacity:1.0; stroke-linejoin: miter">
<path d="M333.22702,684.12054L54.657074,684.1201L-223.91287,684.1196Q-223.91287,694.23157,-223.91287,704.34344Q54.657074,704.34296,333.22702,704.34247Q333.22702,694.2315,333.22702,684.12054"/>
</g>
<g>
<g style="fill:rgb(26,69,81); fill-opacity:1.0; stroke-linejoin: miter">
<path d="M280.1518,692.87085L280.1518,692.87085L277.26505,954.31964C277.21902,958.4873,273.8032,961.82855,269.63556,961.78253C265.46793,961.7365,262.12668,958.3207,262.1727,954.153L262.1727,954.153L265.05945,692.7042C265.10547,688.53656,268.5213,685.1953,272.68893,685.24133C276.85657,685.28735,280.1978,688.7032,280.1518,692.87085 Z"/>
</g>
<g style="fill:rgb(26,69,81); fill-opacity:1.0; stroke-linejoin: miter">
<path d="M171.89919,692.8709L171.89919,692.8709L169.01244,954.3197C168.96642,958.48737,165.55058,961.8286,161.38295,961.7826C157.21532,961.7366,153.87407,958.32074,153.92009,954.1531L153.92009,954.1531L156.80684,692.7043C156.85286,688.5366,160.26869,685.1954,164.43633,685.2414C168.60396,685.2874,171.9452,688.70325,171.89919,692.8709 Z"/>
</g>
<g style="fill:rgb(26,69,81); fill-opacity:1.0; stroke-linejoin: miter">
<path d="M63.646633,692.8709L63.646633,692.8709L60.75991,954.3197C60.713894,958.48737,57.29805,961.8286,53.130413,961.7826C48.962776,961.7366,45.62154,958.32074,45.667557,954.1531L45.667557,954.1531L48.55428,692.7043C48.600296,688.5366,52.01614,685.1954,56.183777,685.2414C60.351414,685.2874,63.69265,688.70325,63.646633,692.8709 Z"/>
</g>
<g style="fill:rgb(26,69,81); fill-opacity:1.0; stroke-linejoin: miter">
<path d="M-152.85847,692.87103L-152.85847,692.87103L-155.74522,954.3198C-155.79124,958.4875,-159.20708,961.82874,-163.37471,961.7827C-167.54234,961.7367,-170.88359,958.32086,-170.83757,954.1532L-170.83757,954.1532L-167.95082,692.7044C-167.9048,688.53674,-164.48897,685.1955,-160.32133,685.2415C-156.1537,685.28754,-152.81245,688.70337,-152.85847,692.87103 Z"/>
</g>
<g style="fill:rgb(26,69,81); fill-opacity:1.0; stroke-linejoin: miter">
<path d="M-44.605976,692.871L-44.605976,692.871L-47.492752,954.31976C-47.53877,958.4874,-50.954613,961.8287,-55.12225,961.78265C-59.289886,961.73663,-62.631123,958.3208,-62.585106,954.15314L-62.585106,954.15314L-59.69833,692.70435C-59.652313,688.5367,-56.23647,685.19543,-52.068832,685.24146C-47.901196,685.2875,-44.55996,688.7033,-44.605976,692.871 Z"/>
</g>
</g>
<g style="fill:rgb(0,0,0); fill-opacity:0.99607843; stroke-linejoin: miter">
<path d="M247.27106,478.62653L246.13498,483.05338Q239.86113,507.77063,236.24585,517.93896Q234.17368,523.84216,232.28589,527.02637Q230.40082,530.17065,228.6459,531.39557Q226.02373,533.08307,223.51137,533.1511Q226.65892,528.0025,229.25693,523.25476Q230.95502,520.1143,232.00179,517.44904Q232.515,516.1238,232.8043,514.9619L233.03088,513.84576Q233.34154,511.7175,232.91948,510.12378Q232.45805,508.08334,230.37372,505.3253Q225.93839,504.89584,222.82404,504.03146Q220.67924,503.16284,220.70041,502.8409Q220.27794,502.3501,220.34471,501.6982Q220.7285,499.6821,225.49928,496.22168Q229.21738,493.4228,238.9238,487.39252L247.27106,478.62653"/>
</g>
<g style="fill:rgb(0,0,0); fill-opacity:0.99607843; stroke-linejoin: miter">
<path d="M259.25854,470.52533L259.25854,470.52585L262.42896,484.855Q252.54735,487.3299,242.66573,489.8048Q232.84912,493.39612,223.0325,496.98743L259.25854,470.52533"/>
</g>
<g style="fill:rgb(0,0,0); fill-opacity:0.99607843; stroke-linejoin: miter">
<path d="M235.59871,474.4105L229.77711,476.71817Q226.70337,481.13525,225.62921,484.7932Q225.36992,485.97507,225.62903,486.96008L226.05476,487.88187Q226.62863,488.7474,227.9431,489.3318Q229.53798,490.2015,235.03043,490.4151Q236.83493,490.484,240.55328,490.40182Q256.35394,489.75644,257.73538,489.84665Q262.5479,489.8283,265.48468,490.38675Q267.4344,490.76193,268.7951,491.3684L270.03796,492.02112Q271.14835,492.72586,271.84637,493.59247Q273.70486,496.2848,273.97296,499.60153Q270.72208,483.8565,269.09354,480.4142Q266.6245,474.21036,264.08432,472.75186Q261.32285,470.94397,257.9208,471.1998Q254.84949,471.3679,250.0799,472.71518L235.59871,474.4105"/>
</g>
<g style="fill:rgb(0,0,0); fill-opacity:0.99607843; stroke-linejoin: miter">
<path d="M214.69847,521.5883L233.47913,569.37195Q237.91066,583.4918,239.08163,588.26965Q240.927,596.047,240.7863,596.711Q241.03061,598.9583,240.7014,600.20264L240.19695,601.14056Q239.25024,602.21515,236.28423,599.9213Q228.60976,593.38165,215.49261,574.5033Q202.37547,555.62494,195.20903,538.6909Q193.1547,533.457,192.28665,529.14844L191.66127,525.02924Q191.3055,521.1203,191.8125,517.8844Q192.86432,509.62634,201.40092,499.9441L214.69847,521.5883"/>
</g>
<g style="fill:rgb(81,114,123); fill-opacity:1.0; stroke-linejoin: miter">
<path d="M310.53625,939.62103L54.65712,939.62054L-201.222,939.62006Q-201.222,972.8374,-201.222,1006.0547Q54.65712,1006.0542,310.53625,1006.05365Q310.53625,972.83734,310.53625,939.62103"/>
</g>
<g style="fill:rgb(140,193,83); fill-opacity:1.0; stroke-linejoin: miter">
<path d="M457.88068,566.16125C457.88068,566.16125,475.1127,545.0691,472.8013,531.57526C472.20554,528.1083,450.10757,561.6717,457.88068,566.16125 Z"/>
</g>
<g style="fill:rgb(140,193,83); fill-opacity:1.0; stroke-linejoin: miter">
<path d="M457.88068,566.16125C457.88068,566.16125,442.4876,553.21045,442.94238,539.64825C443.11023,534.6573,465.65262,561.6717,457.88068,566.16125 Z"/>
</g>
<g style="fill:rgb(140,193,83); fill-opacity:1.0; stroke-linejoin: miter">
<path d="M456.49802,518.7163L459.20956,518.7163L459.20953,566.1614L456.49796,566.1614L456.49802,518.7163 Z M456.49802,518.7163L459.20956,518.7163L459.20953,566.1614L456.49796,566.1614L456.49802,518.7163 Z M456.49802,518.7163L459.20956,518.7163L459.20953,566.1614L456.49796,566.1614L456.49802,518.7163 Z M456.49802,518.7163L459.20956,518.7163L459.20953,566.1614L456.49796,566.1614L456.49802,518.7163 Z"/>
</g>
<g style="fill:rgb(211,9,58); fill-opacity:1.0; stroke-linejoin: miter">
<path d="M471.30203,505.4971C468.40097,502.59604,454.9628,502.15524,457.23932,519.6056C474.47327,521.6646,474.2011,508.39624,471.30203,505.4971 Z"/>
</g>
<g style="fill:rgb(211,9,58); fill-opacity:1.0; stroke-linejoin: miter">
<path d="M462.9821,536.24677C466.9435,535.18335,474.04434,523.76556,457.79343,517.0122C447.39423,530.9062,459.0205,537.30695,462.9821,536.24677 Z"/>
</g>
<g style="fill:rgb(211,9,58); fill-opacity:1.0; stroke-linejoin: miter">
<path d="M440.513,513.66644C439.4516,517.6278,445.78894,529.4863,459.76334,518.7894C452.92938,502.83643,441.57425,509.7049,440.513,513.66644 Z"/>
</g>
<g style="fill:rgb(255,0,62); fill-opacity:1.0; stroke-linejoin: miter">
<path d="M453.00983,501.20822C449.04843,502.26852,441.9466,513.6864,458.19846,520.43964C468.59753,506.54562,456.97137,500.14587,453.00983,501.20822 Z"/>
</g>
<g style="fill:rgb(255,0,62); fill-opacity:1.0; stroke-linejoin: miter">
<path d="M475.4779,523.7854C476.5402,519.8259,470.20395,507.96545,456.22855,518.6624C463.06342,534.6155,474.41772,527.7487,475.4779,523.7854 Z"/>
</g>
<g style="fill:rgb(255,0,62); fill-opacity:1.0; stroke-linejoin: miter">
<path d="M444.68985,531.9546C447.5899,534.8558,461.03012,535.2965,458.75256,517.8461C441.5197,515.7871,441.78964,529.05554,444.68985,531.9546 Z"/>
</g>
<g style="fill:rgb(255,206,84); fill-opacity:1.0; stroke-linejoin: miter">
<path d="M457.85394,524.1568C454.85358,524.15686,452.41318,521.71643,452.41318,518.71606C452.4132,515.7157,454.85355,513.2753,457.85388,513.27527C460.85342,513.2753,463.2938,515.71564,463.29376,518.716C463.29376,521.7164,460.85333,524.15686,457.85394,524.1568 Z"/>
</g>
<g style="fill:rgb(246,187,66); fill-opacity:1.0; stroke-linejoin: miter">
<path d="M464.64014,520.06226C465.39072,520.0623,465.99628,519.4566,465.9963,518.708C465.99628,517.95935,465.3907,517.35187,464.64014,517.35187C464.5964,517.35187,464.55673,517.3539,464.513,517.35785C464.45734,517.08185,464.38196,516.8097,464.29453,516.5477C464.3342,516.5298,464.37003,516.50995,464.4097,516.4881C465.057,516.1128,465.27948,515.2847,464.90607,514.6353C464.53085,513.98804,463.7028,513.7656,463.05353,514.139C463.01578,514.16284,462.9761,514.18665,462.94028,514.21246C462.75558,514.00397,462.55893,513.8054,462.34857,513.6207C462.37436,513.585,462.39825,513.54724,462.42,513.50745C462.79523,512.8582,462.57278,512.03015,461.92352,511.65674C461.27625,511.28137,460.44623,511.5038,460.07278,512.1512C460.0489,512.19086,460.02917,512.23065,460.01138,512.27234C459.74838,512.1849,459.47916,512.1095,459.20224,512.0539C459.20718,512.0102,459.20923,511.96646,459.20923,511.92084C459.2092,511.17218,458.6026,510.5647,457.85397,510.56467C457.10538,510.5647,456.4978,511.1723,456.49783,511.92084C456.4978,511.96646,456.50073,512.0102,456.5048,512.05396C456.22882,512.1095,455.95883,512.185,455.69568,512.27234C455.67776,512.23065,455.65692,512.19086,455.63416,512.1512C455.2599,511.50388,454.43082,511.2814,453.78244,511.65472C453.1342,512.0301,452.9118,512.85815,453.28604,513.5074C453.30893,513.547,453.3337,513.5848,453.35953,513.6206C453.15002,513.80536,452.95145,514.0039,452.76675,514.2124C452.73,514.1866,452.69327,514.1627,452.65363,514.1389C452.00528,513.76556,451.1762,513.98804,450.8019,514.63525C450.4277,515.28467,450.65,516.11273,451.29837,516.48804C451.33612,516.50995,451.3749,516.5297,451.41354,516.54767C451.3252,516.8117,451.25067,517.08185,451.1941,517.3578C451.1524,517.3539,451.1097,517.35187,451.067,517.35187C450.31836,517.3518,449.71173,517.9595,449.71176,518.708C449.71173,519.4565,450.31836,520.06226,451.06702,520.06226C451.1087,520.06226,451.1504,520.0602,451.19107,520.0563C451.24673,520.3343,451.32007,520.6063,451.40842,520.8703C451.37167,520.88824,451.33392,520.90607,451.29822,520.926C450.64987,521.3013,450.42752,522.12933,450.8018,522.7786C451.17606,523.42596,452.0051,523.6484,452.65347,523.27515C452.6892,523.2534,452.7229,523.23157,452.75668,523.20764C452.9423,523.42004,453.14084,523.6186,453.35236,523.80524C453.32858,523.83905,453.30673,523.87274,453.28586,523.90643C452.91165,524.55585,453.13397,525.3839,453.78232,525.75916C454.43063,526.13257,455.25977,525.9103,455.63397,525.2628C455.6538,525.229,455.67172,525.1933,455.68762,525.15753C455.95367,525.2469,456.2247,525.32227,456.50372,525.3779C456.5008,525.4157,456.49774,525.4553,456.49774,525.49304C456.49777,526.2436,457.10544,526.8493,457.8539,526.84924C458.60242,526.84924,459.20917,526.24365,459.20917,525.4931C459.20917,525.4553,459.20624,525.41565,459.2032,525.3779C459.48212,525.32227,459.7543,525.2469,460.01935,525.15753C460.03726,525.19324,460.053,525.22894,460.07285,525.26276C460.44635,525.9101,461.27637,526.13245,461.92368,525.7592C462.57288,525.3839,462.79538,524.55585,462.42007,523.9065C462.40024,523.8728,462.3784,523.839,462.3565,523.8053C462.5669,523.6187,462.7656,523.4201,462.95233,523.2096C462.98413,523.23145,463.01794,523.25336,463.05365,523.2751C463.7029,523.64844,464.53094,523.4261,464.90622,522.7786C465.2796,522.1293,465.0572,521.3013,464.4098,520.9259C464.37405,520.90607,464.3363,520.8882,464.29855,520.87024C464.38794,520.6062,464.46143,520.33417,464.51712,520.05615C464.55664,520.06024,464.59833,520.06226,464.64014,520.06226 Z M457.8539,522.80054C455.6012,522.8006,453.7693,520.96967,453.76935,518.71594C453.76935,516.46423,455.6012,514.63135,457.8539,514.6313C460.10464,514.63135,461.93958,516.46405,461.93954,518.7159C461.9394,520.96967,460.10464,522.80054,457.8539,522.80054 Z"/>
</g>
<g style="fill:rgb(246,187,66); fill-opacity:1.0; stroke-linejoin: miter">
<path d="M457.837,517.46094C457.08752,517.461,456.4809,518.0666,456.48087,518.8152C456.4809,519.56384,457.08755,520.1715,457.837,520.1715C458.58566,520.1715,459.1923,519.56384,459.19226,518.8152C459.1923,518.0666,458.58566,517.461,457.837,517.46094 Z"/>
</g>
<g style="fill:rgb(140,193,83); fill-opacity:1.0; stroke-linejoin: miter">
<path d="M457.97076,580.44507L458.88693,580.4452L459.8031,580.44525Q459.8031,588.8153,459.8031,597.1853Q458.88693,597.18536,457.97076,597.1854Q457.97076,588.81525,457.97076,580.44507"/>
</g>
<g style="fill:rgb(0,0,0); fill-opacity:1.0; stroke-linejoin: miter">
<path d="M51.929512,407.00406C23.001184,407.0041,-0.4515667,430.45657,-0.4512062,459.38406C-0.4508419,488.31094,23.001858,511.76273,51.929413,511.76273C80.857,511.76273,104.30976,488.31104,104.31018,459.38412C104.3106,430.4566,80.85789,407.00406,51.929512,407.00406 Z"/>
</g>
<g style="fill:rgb(255,255,255); fill-opacity:1.0; stroke-linejoin: miter">
<path d="M48.673798,462.63965C49.507286,463.47308,50.65851,463.98877,51.92946,463.98877C54.37006,463.98877,56.373188,462.08014,56.52284,459.67645L79.199844,436.99777L74.31636,432.1144L51.92946,454.49835L36.869087,439.44067L31.985607,444.32404L47.336082,459.67645C47.40517,460.83228,47.90478,461.8706,48.673798,462.63965 Z M51.929512,413.91135C77.00347,413.91135,97.403145,434.31082,97.402824,459.3841C97.40251,484.4569,77.00279,504.8558,51.92942,504.8558C26.856066,504.85574,6.456403,484.45694,6.456132,459.38412C6.455867,434.31094,26.855566,413.91132,51.929512,413.91135 Z"/>
</g>
<g style="fill:rgb(109,168,214); fill-opacity:1.0; stroke-linejoin: miter">
<path d="M52.22188,454.79077L51.92946,454.49835L36.869087,439.44067L31.985607,444.32404L47.336082,459.67645C47.326878,459.5797,47.324577,459.48303,47.324577,459.3841L51.929474,454.77924C52.028477,454.77924,52.125187,454.78156,52.22188,454.79077 Z"/>
</g>
<g style="fill:rgb(152,217,213); fill-opacity:1.0; stroke-linejoin: miter">
<path d="M79.199844,436.99777L74.31636,432.1144L51.92946,454.49835L52.22188,454.79077L56.53436,459.3841C56.53436,459.48303,56.532055,459.5797,56.52284,459.67645L79.199844,436.99777 Z"/>
</g>
<g style="fill:rgb(24,95,141); fill-opacity:1.0; stroke-linejoin: miter">
<path d="M50.41606,458.45544L28.332932,480.53793C27.658567,481.21237,27.658567,482.30576,28.332947,482.9799C28.670025,483.31693,29.112099,483.4857,29.553932,483.48575C29.995773,483.48575,30.437832,483.31717,30.774906,482.97995L52.858036,460.8974L50.41606,458.45544 Z"/>
</g>
<g style="fill:rgb(255,204,117); fill-opacity:1.0; stroke-linejoin: miter">
<path d="M51.92946,463.98877C54.4686,463.98877,56.534344,461.9231,56.53436,459.3841C56.53436,456.84497,54.468616,454.77924,51.929474,454.77924C49.390327,454.77924,47.324574,456.84497,47.324577,459.3841C47.324577,461.9231,49.39032,463.98877,51.92946,463.98877 Z"/>
</g>
<g style="fill:rgb(39,75,109); fill-opacity:1.0; stroke-linejoin: miter">
<path d="M51.929497,429.45282C50.975822,429.45282,50.202644,428.67963,50.20263,427.72595L50.202644,420.81873C50.202644,419.86505,50.975822,419.09186,51.929497,419.09186C52.88319,419.09186,53.65636,419.86505,53.656353,420.81873L53.656345,427.72595C53.656353,428.67963,52.883183,429.45282,51.929497,429.45282 Z"/>
</g>
<g style="fill:rgb(39,75,109); fill-opacity:1.0; stroke-linejoin: miter">
<path d="M90.49546,461.1109L83.588104,461.11102C82.634445,461.11084,81.86129,460.33777,81.8613,459.3841C81.861305,458.43036,82.634476,457.6573,83.58814,457.6573L90.4955,457.6576C91.44918,457.6573,92.222336,458.43036,92.22231,459.3841C92.222305,460.33777,91.44913,461.11084,90.49546,461.1109 Z"/>
</g>
<g style="fill:rgb(39,75,109); fill-opacity:1.0; stroke-linejoin: miter">
<path d="M51.92942,499.67545C50.97577,499.67545,50.202606,498.9023,50.2026,497.9487L50.2026,491.0416C50.202606,490.08792,50.97577,489.31485,51.92943,489.31485C52.8831,489.31485,53.65626,490.08792,53.656246,491.0416L53.656242,497.9487C53.656242,498.9023,52.883087,499.67545,51.92942,499.67545 Z"/>
</g>
<g style="fill:rgb(39,75,109); fill-opacity:1.0; stroke-linejoin: miter">
<path d="M20.270826,461.11087L13.363489,461.111C12.409821,461.1108,11.636655,460.33774,11.636638,459.38406C11.63663,458.43033,12.40979,457.65726,13.363461,457.65726L20.270807,457.65756C21.224478,457.65732,21.99764,458.4304,21.997644,459.38412C21.99766,460.3378,21.224497,461.11087,20.270826,461.11087 Z"/>
</g>
<g style="fill:rgb(179,179,179); fill-opacity:1.0; stroke-linejoin: miter">
<path d="M811.4624,440.084L794.30664,422.92825L777.1506,440.084L775.37964,438.3131L793.421,420.27203C793.65576,420.03723,793.9745,419.90546,794.30664,419.90546C794.6388,419.90546,794.95715,420.03723,795.19226,420.27203L813.23364,438.3131L811.4624,440.084 Z"/>
</g>
<g style="fill:rgb(218,146,108); fill-opacity:1.0; stroke-linejoin: miter">
<path d="M843.23816,435.8328L843.23816,437.3824L829.40735,451.21295L829.40735,449.66333L827.8577,449.66367L841.6885,435.8328 Z"/>
</g>
<g style="fill:rgb(218,146,108); fill-opacity:1.0; stroke-linejoin: miter">
<path d="M760.7574,449.66333L759.20776,449.66367L759.20776,451.21295L745.377,437.3824L745.377,435.8328L746.92664,435.83313 Z"/>
</g>
<g style="fill:rgb(218,146,108); fill-opacity:1.0; stroke-linejoin: miter">
<path d="M760.7574,539.5713L746.92664,553.40186L745.377,553.4022L745.377,551.8523L759.20776,538.0217L759.20776,539.5713 Z"/>
</g>
<g style="fill:rgb(218,146,108); fill-opacity:1.0; stroke-linejoin: miter">
<path d="M843.23816,551.8523L843.23816,553.40186L841.6885,553.4022L827.8577,539.5713L829.40735,539.57166L829.40735,538.0217 Z"/>
</g>
<g style="fill:rgb(0,0,0); fill-opacity:1.0; stroke-linejoin: miter">
<path d="M793.7315,470.20486Q796.8673,469.91736,799.27747,471.04153Q800.421,471.53568,801.98553,472.48605Q807.9654,476.13776,808.6989,476.75723Q813.97424,480.42838,814.74,485.3519Q815.93005,492.2761,811.7806,500.72852Q808.545,507.49078,801.5395,511.36264L786.17474,481.48056L784.5556,477.18143Q782.5148,475.6991,782.44135,474.77264Q782.2247,473.2247,784.65576,472.2567Q789.2808,470.6859,793.69574,470.20752 Z"/>
</g>
<g style="fill:rgb(253,189,153); fill-opacity:1.0; stroke-linejoin: miter">
<path d="M785.8022,478.9884L787.56903,479.2237L793.26434,481.60382Q792.7866,484.2836,793.72986,485.10165Q794.09106,485.46686,794.64417,485.68417Q797.80804,486.59286,798.2134,486.90793Q799.26105,487.47318,799.7473,488.30713Q800.45123,489.3922,800.31757,491.76572Q800.36395,493.07748,798.8836,500.19254Q798.7228,501.4043,799.0342,501.652Q799.3906,502.04968,801.0749,500.4711Q800.78375,497.11984,802.4913,496.52493Q804.01636,495.91315,805.6165,496.3225Q807.10394,496.7769,807.3524,497.92813Q807.952,499.59375,804.68994,506.0676Q806.54877,506.85092,806.42926,507.43958Q806.53033,507.94357,805.4057,509.55225L804.1672,514.49146L805.18677,517.72687L796.3055,528.61475L785.25684,519.55396L785.7399,513.6862Q785.276,514.5703,778.96246,514.08264Q776.6373,513.8047,776.3752,512.30646L776.024,509.08585L776.4961,504.88184L778.0707,500.20346Q774.3727,498.76288,774.37463,496.22742Q774.4448,495.917,774.87,495.66397Q775.6495,495.48953,777.5831,494.47156Q779.27924,492.6945,779.9194,491.6924Q780.6658,490.56424,781.0212,489.2673Q781.32,488.39908,781.7048,485.16797Q781.8619,484.42578,782.1549,483.80167Q782.7696,482.36172,785.7599,479.03653 Z"/>
</g>
<g style="fill:rgb(255,255,255); fill-opacity:0.99607843; stroke-linejoin: miter">
<path d="M784.12067,489.51492L784.1207,489.51562L783.75916,491.2316Q785.3395,491.28192,786.9197,491.33206L784.12067,489.51492 Z"/>
</g>
<g style="fill:rgb(0,0,0); fill-opacity:0.99607843; stroke-linejoin: miter">
<path d="M784.17456,489.50488L784.11914,489.56543Q783.94763,489.7458,783.81714,489.93793Q783.7191,490.10135,783.7111,490.13733Q783.68335,490.20557,783.6681,490.27765Q783.65295,490.35022,783.65015,490.4259L783.65015,490.5024Q783.6527,490.57956,783.6643,490.6597Q783.69116,490.85876,783.80865,491.237L784.62317,490.57208L784.17456,489.50488 Z"/>
</g>
<g style="fill:rgb(0,0,0); fill-opacity:0.99607843; stroke-linejoin: miter">
<path d="M793.1328,478.00204L793.1328,478.0027L793.1328,478.00204L793.1328,478.0027 Z"/>
</g>
<g style="fill:rgb(134,54,8); fill-opacity:0.99607843; stroke-linejoin: miter">
<path d="M784.30994,488.23538L784.5172,488.25003Q785.1448,488.28964,785.71704,488.3688Q786.3429,488.46997,786.61487,488.5838Q786.9133,488.6913,787.24023,488.91733Q787.2943,488.94965,787.5237,489.13977Q787.66034,489.2546,787.9519,489.5418L784.30994,488.23538 Z"/>
</g>
<g style="fill:rgb(134,54,8); fill-opacity:0.99607843; stroke-linejoin: miter">
<path d="M787.97815,483.68893L787.97815,483.68954L787.9779,483.68958L787.97815,483.68893 Z"/>
</g>
<g style="fill:rgb(255,255,255); fill-opacity:0.99607843; stroke-linejoin: miter">
<path d="M776.9678,503.4815L776.6823,504.3294Q778.37396,504.32098,781.35187,504.13092Q779.52936,504.00665,778.6388,503.8724Q777.7619,503.7286,777.6237,503.6797Q777.3088,503.60254,777.033,503.50418Q777.0058,503.49442,776.9788,503.48413Q776.97516,503.48273,776.9715,503.4813 Z"/>
</g>
<g style="fill:rgb(177,226,255); fill-opacity:1.0; stroke-linejoin: miter">
<path d="M759.2593,302.00455L816.94257,302.00516C821.88116,302.00455,825.89905,297.9867,825.89905,293.0481L825.89905,275.08438C825.89905,270.14578,821.88116,266.1279,816.94257,266.1279L759.2593,266.1285C754.3207,266.1279,750.30273,270.14578,750.30273,275.08438L750.30273,293.0481C750.30273,297.9867,754.3207,302.00455,759.2593,302.00455 Z"/>
</g>
<g style="fill:rgb(177,226,255); fill-opacity:1.0; stroke-linejoin: miter">
<path d="M842.3324,302.00455L900.0151,302.00516C904.9537,302.00455,908.97156,297.9867,908.97156,293.0481L908.97156,275.08438C908.97156,270.14578,904.9537,266.1279,900.0151,266.1279L842.3324,266.1285C837.3938,266.1279,833.3759,270.14578,833.3759,275.08438L833.3759,293.0481C833.3759,297.9867,837.3938,302.00455,842.3324,302.00455 Z"/>
</g>
<g style="fill:rgb(177,226,255); fill-opacity:1.0; stroke-linejoin: miter">
<path d="M718.6709,302.00455L734.37573,302.00516C739.31433,302.00455,743.3323,297.9867,743.3323,293.0481L743.3323,275.08438C743.3323,270.14578,739.31433,266.1279,734.37573,266.1279L718.6709,266.1285C713.7323,266.1279,709.7144,270.14578,709.7144,275.08438L709.7144,293.0481C709.7144,297.9867,713.7323,302.00455,718.6709,302.00455 Z"/>
</g>
<g style="fill:rgb(177,226,255); fill-opacity:1.0; stroke-linejoin: miter">
<path d="M941.2012,266.12793L925.4969,266.1285C920.5583,266.12793,916.5404,270.14578,916.5404,275.085L916.5404,293.0481C916.5404,297.9867,920.5583,302.00455,925.4969,302.00455L941.2012,302.00516C946.1397,302.00455,950.15765,297.9867,950.15765,293.0481L950.15765,275.085C950.15765,270.14578,946.1397,266.12793,941.2012,266.12793 Z"/>
</g>
<g style="fill:rgb(177,226,255); fill-opacity:1.0; stroke-linejoin: miter">
<path d="M188.41104,1090.3433C183.47244,1090.3433,179.45456,1094.3611,179.45456,1099.2997L179.45456,1117.2634C179.45456,1122.2019,183.47244,1126.2198,188.41104,1126.2198L246.09433,1126.2205C251.03293,1126.2198,255.05081,1122.2019,255.05081,1117.2634L255.05081,1099.2997C255.05081,1094.3611,251.03293,1090.3433,246.09433,1090.3433L188.41104,1090.3438 Z"/>
</g>
<g style="fill:rgb(177,226,255); fill-opacity:1.0; stroke-linejoin: miter">
<path d="M271.48413,1126.2192L329.16684,1126.2198C334.10544,1126.2192,338.12332,1122.2014,338.12332,1117.2627L338.12332,1099.2991C338.12332,1094.3606,334.10544,1090.3425,329.16684,1090.3425L271.48413,1090.3433C266.54556,1090.3425,262.52768,1094.3606,262.52768,1099.2991L262.52768,1117.2627C262.52768,1122.2014,266.54556,1126.2192,271.48413,1126.2192 Z"/>
</g>
<g style="fill:rgb(177,226,255); fill-opacity:1.0; stroke-linejoin: miter">
<path d="M147.82272,1126.2192L163.52759,1126.2198C168.46619,1126.2192,172.48404,1122.2014,172.48404,1117.2627L172.48404,1099.2991C172.48404,1094.3606,168.46619,1090.3425,163.52759,1090.3425L147.82272,1090.3433C142.8841,1090.3425,138.86624,1094.3606,138.86624,1099.2991L138.86624,1117.2627C138.86624,1122.2014,142.8841,1126.2192,147.82272,1126.2192 Z"/>
</g>
</g>
</svg>