<?xml version="1.0" standalone="no"?>
<!DOCTYPE svg PUBLIC "-//W3C//DTD SVG 20010904//EN"
 "http://www.w3.org/TR/2001/REC-SVG-20010904/DTD/svg10.dtd">
<svg version="1.0" xmlns="http://www.w3.org/2000/svg"
 width="511.000000pt" height="109.000000pt" viewBox="0 0 511.000000 109.000000"
 preserveAspectRatio="xMidYMid meet">

<g transform="translate(0.000000,109.000000) scale(0.100000,-0.100000)"
fill="#000000" stroke="none">
<path d="M3180 595 l0 -245 825 0 825 0 0 245 0 245 -825 0 -825 0 0 -245z
m1480 150 c50 -25 90 -92 90 -150 0 -108 -108 -192 -210 -165 -86 23 -137 99
-127 187 13 116 140 181 247 128z m-1280 -150 l0 -165 -50 0 -50 0 0 165 0
165 50 0 50 0 0 -165z m316 88 l59 -77 3 77 3 77 49 0 50 0 0 -165 0 -165 -42
0 c-41 0 -45 3 -98 70 -30 38 -57 69 -60 70 -3 0 -4 -31 -2 -70 l4 -70 -51 0
-51 0 0 165 0 165 39 0 c36 0 42 -4 97 -77z m574 37 l0 -40 -70 0 c-68 0 -70
-1 -70 -25 0 -22 4 -24 58 -27 l57 -3 0 -35 0 -35 -57 -3 -58 -3 0 -59 0 -60
-50 0 -50 0 0 165 0 165 120 0 120 0 0 -40z"/>
<path d="M4536 659 c-52 -41 -20 -149 44 -149 34 0 70 44 70 85 0 25 -8 44
-25 60 -30 30 -54 31 -89 4z"/>
<path d="M347 763 c-4 -3 -7 -82 -7 -175 l0 -168 94 0 c102 0 152 12 179 42
24 28 22 86 -3 114 -20 20 -20 23 -4 57 20 42 13 79 -21 113 -22 22 -31 24
-128 24 -57 0 -107 -3 -110 -7z m168 -103 c0 -10 -12 -16 -37 -18 -33 -3 -38
0 -38 18 0 18 5 21 38 18 25 -2 37 -8 37 -18z m5 -115 c18 -22 3 -35 -41 -35
-31 0 -39 4 -39 18 0 10 3 22 7 25 12 12 60 7 73 -8z"/>
<path d="M875 758 c-75 -204 -113 -324 -106 -331 4 -4 28 -7 52 -5 39 3 44 6
53 36 8 29 13 32 47 32 34 0 39 -3 50 -35 12 -33 15 -35 61 -35 35 0 48 4 48
14 0 8 -25 87 -56 175 l-56 161 -45 0 c-26 0 -45 -5 -48 -12z m64 -185 c1 -7
-8 -13 -19 -13 -24 0 -23 -2 -8 41 12 34 12 34 19 9 4 -14 7 -31 8 -37z"/>
<path d="M1230 595 l0 -175 50 0 49 0 3 77 3 76 60 -77 c59 -75 61 -77 100
-74 l40 3 0 170 0 170 -50 0 -50 0 -5 -73 -5 -73 -59 76 c-55 70 -61 75 -97
75 l-39 0 0 -175z"/>
<path d="M1710 594 l0 -176 93 4 c100 4 144 21 178 68 47 65 37 181 -19 232
-40 34 -89 48 -179 48 l-73 0 0 -176z m187 46 c29 -56 6 -112 -50 -121 l-37
-6 0 82 0 82 37 -6 c26 -4 41 -14 50 -31z"/>
<path d="M2178 764 c-5 -4 -8 -83 -8 -176 l0 -168 50 0 50 0 0 49 c0 28 4 53
10 56 5 3 26 -19 45 -50 35 -54 36 -55 84 -55 26 0 50 3 54 6 3 3 -10 32 -29
65 l-35 59 20 27 c14 17 21 40 21 69 0 36 -6 51 -34 82 l-34 37 -94 3 c-51 2
-96 0 -100 -4z m155 -93 c4 -1 7 -12 7 -26 0 -22 -4 -25 -35 -25 -30 0 -35 3
-35 23 0 30 5 34 32 31 13 -1 26 -3 31 -3z"/>
<path d="M2676 698 c-14 -40 -41 -116 -60 -170 -19 -53 -32 -99 -29 -102 4 -3
26 -6 50 -6 41 0 45 3 59 35 13 31 18 35 52 35 34 0 39 -3 47 -32 9 -29 15
-33 49 -36 70 -6 70 -8 7 175 l-59 168 -45 3 -45 3 -26 -73z m83 -120 c1 -11
-6 -18 -18 -18 -17 0 -18 3 -8 36 9 30 12 33 18 18 4 -11 8 -27 8 -36z"/>
</g>
</svg>
