<?xml version="1.0" standalone="no"?>
<!DOCTYPE svg PUBLIC "-//W3C//DTD SVG 20010904//EN"
 "http://www.w3.org/TR/2001/REC-SVG-20010904/DTD/svg10.dtd">
<svg version="1.0" xmlns="http://www.w3.org/2000/svg"
 width="465.000000pt" height="62.000000pt" viewBox="0 0 465.000000 62.000000"
 preserveAspectRatio="xMidYMid meet">

<g transform="translate(0.000000,62.000000) scale(0.100000,-0.100000)"
fill="#000000" stroke="none">
<path d="M2945 547 c-3 -7 -4 -116 -3 -242 l3 -230 820 0 820 0 0 240 0 240
-818 3 c-656 2 -819 0 -822 -11z"/>
<path d="M106 482 c-4 -3 -6 -78 -6 -168 l0 -162 26 -5 c45 -8 191 1 216 14
54 29 64 88 23 137 -21 25 -23 31 -11 42 37 30 23 117 -21 135 -21 9 -219 15
-227 7z m172 -104 c3 -15 -4 -18 -37 -18 -35 0 -41 3 -41 21 0 17 5 20 37 17
27 -2 39 -8 41 -20z m7 -123 c0 -16 -8 -21 -42 -23 -40 -3 -43 -2 -43 23 0 25
3 26 43 23 34 -2 42 -7 42 -23z"/>
<path d="M643 481 c-8 -5 -106 -280 -115 -320 -2 -9 9 -14 39 -16 51 -2 58 2
67 38 6 24 11 27 47 27 35 0 41 -3 50 -29 7 -20 19 -30 38 -34 25 -5 71 0 71
8 0 8 -103 301 -110 314 -8 15 -71 23 -87 12z m56 -183 c1 -12 -6 -18 -19 -18
-24 0 -23 -2 -8 40 10 30 12 32 19 14 4 -10 8 -27 8 -36z"/>
<path d="M994 475 c-3 -6 -3 -82 -2 -170 l3 -159 45 -1 45 0 5 74 5 74 62 -75
c48 -59 66 -75 85 -73 12 1 29 3 36 4 9 1 12 41 12 165 0 162 0 164 -22 169
-13 4 -32 4 -43 2 -11 -2 -23 -4 -27 -4 -4 -1 -8 -34 -10 -73 l-3 -73 -50 64
c-27 36 -53 69 -56 74 -10 14 -80 16 -85 2z"/>
<path d="M1474 476 c-2 -6 -3 -84 -2 -171 l3 -160 88 2 c106 2 152 21 184 79
47 81 18 199 -57 236 -44 22 -209 32 -216 14z m171 -101 c50 -49 17 -145 -50
-145 -25 0 -25 1 -25 85 0 84 0 85 25 85 14 0 37 -11 50 -25z"/>
<path d="M1942 482 c-18 -6 -17 -328 1 -334 6 -3 28 -4 47 -3 35 1 35 1 38 53
2 32 8 52 15 52 7 0 27 -24 44 -54 32 -53 33 -53 78 -51 25 1 47 4 51 7 3 3
-9 31 -26 62 l-32 56 21 26 c14 18 21 41 21 71 0 38 -5 50 -34 79 -19 19 -42
34 -52 35 -73 4 -163 4 -172 1z m156 -114 c3 -26 1 -28 -32 -28 -33 0 -36 2
-36 31 0 28 2 30 33 27 27 -2 33 -8 35 -30z"/>
<path d="M2461 476 c-8 -11 -111 -306 -111 -317 0 -11 42 -18 71 -12 21 4 30
13 34 34 6 27 10 29 50 29 40 0 44 -2 50 -30 5 -22 13 -30 28 -31 30 -2 71 2
76 7 5 5 -99 306 -110 318 -12 13 -78 14 -88 2z m59 -165 c8 -28 7 -31 -15
-31 -22 0 -23 2 -14 32 5 18 9 35 9 37 0 12 12 -10 20 -38z"/>
</g>
</svg>
