<?xml version="1.0" standalone="no"?>
<!DOCTYPE svg PUBLIC "-//W3C//DTD SVG 20010904//EN"
 "http://www.w3.org/TR/2001/REC-SVG-20010904/DTD/svg10.dtd">
<svg version="1.0" xmlns="http://www.w3.org/2000/svg"
 width="1200.000000pt" height="1200.000000pt" viewBox="0 0 1200.000000 1200.000000"
 preserveAspectRatio="xMidYMid meet">

<g transform="translate(0.000000,1200.000000) scale(0.100000,-0.100000)"
fill="#000000" stroke="none">
<path d="M7090 6000 l0 -400 1375 0 1375 0 0 400 0 400 -1375 0 -1375 0 0
-400z m2485 246 c198 -116 181 -416 -29 -507 -118 -51 -258 -17 -336 83 -49
61 -64 113 -58 203 5 80 23 120 76 173 91 91 239 111 347 48z m-2165 -246 l0
-280 -80 0 -80 0 0 280 0 280 80 0 80 0 0 -280z m540 147 l105 -132 3 133 3
132 79 0 80 0 0 -280 0 -280 -67 0 -68 1 -100 125 -100 125 -3 -125 -3 -126
-79 0 -80 0 0 280 0 280 63 0 62 0 105 -133z m960 63 l0 -70 -115 0 -115 0 0
-40 0 -40 95 0 96 0 -3 -67 -3 -68 -92 -3 -93 -3 0 -99 0 -100 -80 0 -80 0 0
280 0 280 195 0 195 0 0 -70z"/>
<path d="M9384 6130 c-30 -12 -62 -56 -70 -96 -16 -87 39 -174 110 -174 84 0
133 64 124 161 -9 89 -86 141 -164 109z"/>
<path d="M2320 6000 l0 -280 163 0 c122 0 175 4 210 16 83 28 116 81 102 164
-7 39 -44 90 -75 103 -13 5 -12 7 3 17 46 30 64 128 33 188 -33 65 -59 72
-258 72 l-178 0 0 -280z m292 132 c6 -6 8 -22 4 -36 -6 -25 -10 -26 -71 -26
l-65 0 0 33 c0 19 3 37 8 41 10 11 111 1 124 -12z m16 -204 c38 -38 -7 -78
-90 -78 l-58 0 0 45 0 45 68 0 c40 0 73 -5 80 -12z"/>
<path d="M3215 6263 c-16 -42 -185 -533 -185 -538 0 -3 36 -5 80 -5 l79 0 17
55 16 56 71 -3 70 -3 17 -50 17 -50 81 -3 81 -3 -81 233 c-44 128 -87 254 -96
281 l-16 47 -72 0 c-59 0 -73 -3 -79 -17z m82 -321 c-21 -2 -41 -1 -44 2 -4 4
15 75 34 126 3 9 15 -15 28 -55 l21 -70 -39 -3z"/>
<path d="M3820 6000 l0 -280 75 0 74 0 3 132 3 131 105 -131 105 -131 63 -1
62 0 0 280 0 280 -75 0 -74 0 -3 -137 -3 -136 -108 136 -108 137 -60 0 -59 0
0 -280z"/>
<path d="M4620 6001 l0 -281 128 0 c202 0 284 36 338 147 24 48 29 70 28 133
0 124 -44 200 -144 252 -40 21 -61 23 -197 26 l-153 4 0 -281z m296 105 c36
-41 50 -98 35 -146 -20 -68 -49 -92 -114 -98 l-57 -4 0 142 0 142 57 -4 c45
-4 61 -10 79 -32z"/>
<path d="M5400 6000 l0 -280 75 0 75 0 0 85 0 85 28 0 c24 0 33 -11 75 -85
l48 -85 90 0 90 0 -36 63 c-20 34 -45 81 -57 103 l-21 41 21 21 c68 68 67 197
-1 270 -49 53 -85 62 -242 62 l-145 0 0 -280z m274 108 c7 -18 6 -35 -2 -53
-10 -22 -17 -25 -67 -25 l-55 0 0 55 0 56 57 -3 c52 -3 58 -5 67 -30z"/>
<path d="M6275 6263 c-16 -42 -185 -533 -185 -538 0 -3 36 -5 80 -5 l79 0 17
55 16 56 71 -3 70 -3 17 -50 17 -50 81 -3 81 -3 -81 233 c-44 128 -87 254 -96
281 l-16 47 -72 0 c-59 0 -73 -3 -79 -17z m82 -321 c-21 -2 -41 -1 -44 2 -4 4
15 75 34 126 3 9 15 -15 28 -55 l21 -70 -39 -3z"/>
</g>
</svg>
