<?xml version="1.0" standalone="no"?>
<!DOCTYPE svg PUBLIC "-//W3C//DTD SVG 20010904//EN"
 "http://www.w3.org/TR/2001/REC-SVG-20010904/DTD/svg10.dtd">
<svg version="1.0" xmlns="http://www.w3.org/2000/svg"
 width="473.000000pt" height="64.000000pt" viewBox="0 0 473.000000 64.000000"
 preserveAspectRatio="xMidYMid meet">

<g transform="translate(0.000000,64.000000) scale(0.100000,-0.100000)"
fill="#000000" stroke="none">
<path d="M3000 325 l0 -235 795 0 795 0 0 235 0 235 -795 0 -795 0 0 -235z
m190 -1 l0 -165 -47 3 -48 3 -3 163 -2 162 50 0 50 0 0 -166z m306 91 l59 -75
3 75 3 76 45 -3 45 -3 0 -160 0 -160 -35 -3 c-33 -3 -39 2 -93 68 l-58 71 -5
-68 -5 -68 -47 -3 -48 -3 0 165 0 166 39 0 c36 0 42 -5 97 -75z m554 30 l0
-45 -65 0 c-58 0 -65 -2 -65 -20 0 -18 7 -20 55 -20 l55 0 0 -40 0 -40 -55 0
-55 0 0 -61 0 -60 -47 3 -48 3 -3 163 -2 162 115 0 115 0 0 -45z m381 23 c162
-91 67 -338 -117 -304 -81 16 -144 114 -125 197 25 109 145 162 242 107z"/>
<path d="M4302 387 c-19 -23 -25 -67 -12 -97 22 -53 98 -53 120 0 14 33 8 71
-16 94 -19 19 -77 21 -92 3z"/>
<path d="M260 325 l0 -165 95 0 c60 0 108 5 130 14 59 25 73 84 30 134 -22 27
-23 30 -8 45 25 25 21 82 -7 112 -22 24 -29 25 -132 25 l-108 0 0 -165z m168
63 c3 -15 -4 -18 -32 -18 -30 0 -36 4 -36 21 0 17 5 20 32 17 22 -2 34 -9 36
-20z m10 -120 c3 -15 -4 -18 -37 -18 -35 0 -41 3 -41 21 0 17 5 20 37 17 27
-2 39 -8 41 -20z"/>
<path d="M722 337 c-29 -83 -52 -158 -52 -164 0 -9 16 -13 46 -13 41 0 46 3
55 30 10 26 16 30 49 30 33 0 39 -4 49 -30 9 -27 14 -30 55 -30 30 0 46 4 46
13 0 6 -23 81 -52 164 l-53 153 -45 0 -45 0 -53 -153z m108 -1 c0 -8 3 -21 6
-30 4 -12 0 -16 -16 -16 -16 0 -20 4 -16 16 3 9 6 22 6 30 0 8 5 14 10 14 6 0
10 -6 10 -14z"/>
<path d="M1120 324 l0 -165 46 3 47 3 -1 68 c0 37 3 67 6 67 4 -1 31 -32 61
-70 50 -65 57 -70 92 -70 l39 0 0 165 0 165 -50 0 -49 0 -3 -72 -3 -71 -54 71
c-51 67 -58 72 -93 72 l-38 0 0 -166z"/>
<path d="M1580 325 l0 -165 82 0 c103 0 154 22 187 81 19 33 22 52 19 98 -8
110 -63 151 -202 151 l-86 0 0 -165z m172 58 c43 -39 10 -133 -47 -133 -24 0
-25 2 -25 75 0 75 0 75 27 75 14 0 35 -7 45 -17z"/>
<path d="M2024 477 c-2 -7 -3 -80 -2 -162 l3 -150 48 -3 47 -3 0 50 c0 67 20
67 56 1 l27 -50 54 0 c29 0 53 2 53 5 0 3 -14 30 -30 59 l-31 54 21 34 c36 59
18 133 -40 163 -38 20 -198 21 -206 2z m161 -102 c0 -15 -8 -21 -32 -23 -30
-3 -33 -1 -33 23 0 24 3 26 33 23 24 -2 32 -8 32 -23z"/>
<path d="M2482 337 c-29 -83 -52 -158 -52 -164 0 -9 16 -13 46 -13 41 0 46 3
55 30 10 26 16 30 49 30 33 0 39 -4 49 -30 9 -27 14 -30 55 -30 30 0 46 4 46
13 0 6 -23 81 -52 164 l-53 153 -45 0 -45 0 -53 -153z m108 -1 c0 -8 3 -21 6
-30 4 -12 0 -16 -15 -16 -23 0 -24 3 -15 38 7 24 24 30 24 8z"/>
</g>
</svg>
