<svg id="svg" version="1.1" xmlns="http://www.w3.org/2000/svg" xmlns:xlink="http://www.w3.org/1999/xlink" width="400" height="400" viewBox="0, 0, 400,400"><g id="svgg"><path id="path0" d="M89.767 3.334 C 63.728 17.430,39.227 37.127,21.993 57.818 C 20.352 59.788,18.616 61.850,18.134 62.400 C 14.871 66.123,6.421 77.850,2.385 84.256 L -0.000 88.042 -0.000 111.221 L 0.000 134.400 32.700 134.394 C 50.685 134.391,65.596 134.256,65.835 134.094 C 66.075 133.932,67.201 132.218,68.337 130.284 C 88.296 96.333,124.898 69.464,163.292 60.579 C 185.639 55.407,211.540 54.968,230.800 59.433 C 275.625 69.826,308.192 93.411,332.208 132.872 L 333.016 134.200 366.508 134.302 L 400.000 134.405 400.000 112.155 L 400.000 89.905 398.523 87.452 C 377.928 53.246,345.797 23.043,308.947 3.251 L 302.894 -0.000 199.347 0.034 L 95.800 0.068 89.767 3.334 M0.000 312.587 L 0.000 330.774 2.092 334.087 C 15.283 354.976,32.747 374.562,52.756 390.906 C 54.480 392.314,57.843 394.891,62.637 398.477 L 64.674 400.000 199.455 400.000 L 334.237 400.000 337.357 397.700 C 360.839 380.392,382.960 356.584,397.511 332.958 L 400.000 328.917 400.000 311.656 L 400.000 294.396 363.336 294.498 L 326.671 294.600 323.478 299.000 C 317.117 307.765,307.331 318.534,300.398 324.398 C 298.969 325.606,297.710 326.696,297.600 326.820 C 297.419 327.024,291.154 332.020,290.200 332.722 C 240.925 368.965,174.971 372.395,122.000 341.470 C 104.241 331.102,86.141 314.459,74.758 298.034 L 72.240 294.400 36.120 294.400 L 0.000 294.400 0.000 312.587 " stroke="none" fill="#bb3424" fill-rule="evenodd"></path><path id="path1" d="M0.000 213.200 L 0.000 279.600 200.000 279.600 L 400.000 279.600 400.000 254.400 C 400.000 240.540,399.910 229.200,399.801 229.200 C 399.691 229.200,398.746 229.806,397.701 230.548 C 387.072 238.083,368.792 232.945,366.438 221.760 C 365.418 216.911,365.999 199.030,367.264 196.330 C 372.017 186.191,388.849 183.136,398.672 190.628 L 400.000 191.641 400.000 169.220 L 400.000 146.800 200.000 146.800 L 0.000 146.800 0.000 213.200 M29.284 188.712 C 36.990 192.508,39.480 201.829,34.265 207.358 L 32.815 208.896 33.907 209.747 C 41.754 215.856,39.831 228.512,30.528 231.993 C 27.109 233.272,23.750 233.584,13.300 233.592 L 3.600 233.600 3.600 210.377 L 3.600 187.155 15.110 187.277 L 26.620 187.400 29.284 188.712 M75.042 209.800 C 79.508 222.120,83.170 232.515,83.181 232.900 C 83.198 233.537,82.646 233.600,77.014 233.600 C 69.869 233.600,70.730 234.167,68.970 228.304 L 67.800 224.409 61.687 224.404 C 57.150 224.401,55.532 224.529,55.407 224.900 C 55.315 225.175,54.677 227.245,53.989 229.500 L 52.738 233.600 46.569 233.600 C 41.627 233.600,40.400 233.492,40.400 233.055 C 40.400 232.755,41.584 229.110,43.030 224.955 C 44.477 220.800,45.898 216.680,46.189 215.800 C 46.479 214.920,47.920 210.780,49.390 206.600 C 52.722 197.130,55.605 188.824,55.886 187.889 C 56.079 187.246,56.616 187.189,61.510 187.289 L 66.922 187.400 75.042 209.800 M98.910 190.300 C 104.398 199.854,108.863 208.242,110.201 211.507 C 111.944 215.762,112.198 215.913,111.620 212.350 C 111.392 210.947,111.205 204.710,111.203 198.489 L 111.200 187.178 116.900 187.289 L 122.600 187.400 122.600 210.400 L 122.600 233.400 116.745 233.510 L 110.890 233.621 105.462 224.110 C 102.477 218.880,99.282 212.839,98.363 210.688 C 96.309 205.879,96.236 205.928,97.225 211.447 C 97.885 215.131,97.998 217.312,97.908 224.630 L 97.800 233.400 91.800 233.400 L 85.800 233.400 85.696 210.800 C 85.639 198.370,85.678 187.975,85.784 187.700 C 85.924 187.333,87.459 187.200,91.552 187.200 L 97.130 187.200 98.910 190.300 M152.942 187.834 C 158.290 189.212,161.914 192.018,163.946 196.352 L 165.000 198.600 165.000 210.400 C 165.000 221.838,164.972 222.261,164.088 224.178 C 160.715 231.494,156.331 233.242,140.700 233.505 L 130.000 233.685 130.000 210.443 L 130.000 187.200 140.242 187.200 C 148.287 187.200,151.012 187.336,152.942 187.834 M197.000 188.107 C 209.001 192.153,210.964 211.206,199.960 216.821 C 198.820 217.402,198.451 217.788,198.713 218.123 C 198.918 218.385,200.417 220.310,202.043 222.400 C 207.697 229.666,209.353 231.607,209.637 231.305 C 209.794 231.137,210.735 228.660,211.727 225.800 C 212.720 222.940,214.730 217.180,216.195 213.000 C 217.660 208.820,220.257 201.350,221.965 196.400 L 225.071 187.400 230.477 187.289 L 235.883 187.178 236.510 188.889 C 236.855 189.830,239.659 197.620,242.741 206.200 C 245.823 214.780,249.252 224.300,250.362 227.355 C 251.471 230.410,252.283 233.065,252.166 233.255 C 252.049 233.445,249.196 233.600,245.826 233.600 L 239.700 233.600 238.226 229.000 L 236.751 224.400 230.660 224.400 L 224.569 224.400 223.179 228.900 L 221.788 233.400 208.819 233.400 L 195.850 233.400 190.572 226.200 C 186.306 220.379,185.113 219.000,184.347 219.000 L 183.400 219.000 183.291 226.300 L 183.182 233.600 177.434 233.600 C 172.561 233.600,171.649 233.504,171.443 232.967 C 171.096 232.065,171.141 187.793,171.488 187.445 C 172.129 186.804,194.889 187.395,197.000 188.107 M278.800 210.411 L 278.800 233.621 272.900 233.511 L 267.000 233.400 266.891 210.812 C 266.831 198.389,266.870 187.994,266.978 187.712 C 267.126 187.328,268.633 187.200,272.987 187.200 L 278.800 187.200 278.800 210.411 M302.647 196.900 C 305.684 202.235,308.980 208.526,309.970 210.881 C 312.090 215.919,312.273 215.997,311.431 211.505 C 310.958 208.982,310.800 205.513,310.800 197.669 L 310.800 187.200 316.803 187.200 L 322.806 187.200 322.703 210.300 L 322.600 233.400 316.751 233.510 L 310.902 233.621 305.668 224.566 C 302.789 219.585,299.590 213.547,298.559 211.146 C 296.349 206.002,296.177 205.942,296.988 210.597 C 297.425 213.099,297.600 216.901,297.600 223.852 L 297.600 233.600 291.800 233.600 L 286.000 233.600 286.000 210.400 L 286.000 187.200 291.562 187.200 L 297.124 187.200 302.647 196.900 M362.087 187.700 C 362.638 189.291,362.429 197.878,361.827 198.377 C 361.323 198.796,359.263 198.843,351.598 198.608 L 342.000 198.315 342.000 202.357 L 342.000 206.400 350.800 206.400 L 359.600 206.400 359.600 212.000 L 359.600 217.600 350.808 217.600 L 342.017 217.600 341.908 225.500 L 341.800 233.400 335.900 233.511 L 330.000 233.621 330.000 210.411 L 330.000 187.200 345.957 187.200 C 358.364 187.200,361.953 187.311,362.087 187.700 M15.285 201.300 L 15.400 205.000 18.495 205.117 C 24.441 205.341,26.745 203.664,25.625 199.926 C 25.006 197.861,24.309 197.600,19.411 197.600 L 15.170 197.600 15.285 201.300 M381.965 197.982 C 380.352 198.471,378.967 199.516,378.462 200.624 C 377.795 202.088,377.839 218.659,378.513 219.992 C 380.395 223.710,389.469 223.813,391.874 220.144 C 392.641 218.973,393.151 207.271,392.620 203.025 C 392.092 198.799,387.088 196.430,381.965 197.982 M142.000 210.453 L 142.000 222.507 145.900 222.306 C 153.111 221.935,153.200 221.786,153.200 210.127 C 153.200 198.766,152.963 198.400,145.613 198.400 L 142.000 198.400 142.000 210.453 M183.467 198.667 C 183.320 198.813,183.200 201.063,183.200 203.667 L 183.200 208.400 187.420 208.400 C 194.333 208.400,197.036 205.510,194.573 200.749 C 193.576 198.819,184.934 197.199,183.467 198.667 M61.468 201.200 C 61.214 201.834,58.400 213.002,58.400 213.380 C 58.400 213.501,59.836 213.600,61.590 213.600 L 64.780 213.600 64.556 212.500 C 63.596 207.781,61.664 200.713,61.468 201.200 M228.896 207.206 L 227.296 213.600 230.492 213.600 L 233.689 213.600 233.419 212.100 C 233.271 211.275,232.711 208.758,232.175 206.506 C 231.639 204.254,231.200 202.149,231.200 201.829 C 231.200 199.568,230.257 201.769,228.896 207.206 M15.200 218.400 L 15.200 222.800 19.640 222.800 L 24.080 222.800 25.440 221.440 C 29.273 217.607,26.258 214.000,19.220 214.000 L 15.200 214.000 15.200 218.400 " stroke="none" fill="#041456" fill-rule="evenodd"></path><path id="path2" d="M0.000 43.467 C 0.000 67.373,0.076 86.858,0.168 86.765 C 0.261 86.672,2.466 83.412,5.068 79.520 C 24.146 50.986,49.948 26.335,78.951 8.931 C 80.904 7.759,82.573 6.800,82.659 6.800 C 82.745 6.800,83.499 6.369,84.333 5.842 C 85.167 5.316,87.819 3.847,90.225 2.578 C 92.631 1.310,94.675 0.211,94.767 0.136 C 94.858 0.061,73.573 -0.000,47.467 -0.000 L 0.000 0.000 0.000 43.467 M304.400 0.167 C 304.400 0.258,306.425 1.400,308.900 2.703 C 315.814 6.344,327.058 13.189,332.200 16.888 C 359.845 36.772,379.305 56.978,396.639 83.800 L 399.999 89.000 400.000 44.500 L 400.000 0.000 352.200 0.000 C 325.910 0.000,304.400 0.075,304.400 0.167 M187.400 57.044 C 135.724 62.186,92.762 89.295,67.110 132.945 L 66.020 134.800 33.010 134.800 L 0.000 134.800 0.000 140.600 L 0.000 146.400 200.000 146.400 L 400.000 146.400 400.000 140.600 L 400.000 134.800 366.676 134.800 C 340.608 134.800,333.221 134.691,332.745 134.300 C 332.411 134.025,331.354 132.450,330.396 130.800 C 318.374 110.102,297.779 89.779,276.200 77.322 C 258.493 67.101,241.663 61.344,219.600 57.964 C 214.417 57.170,192.445 56.542,187.400 57.044 M380.000 187.395 C 373.624 188.882,369.899 191.595,367.636 196.400 C 366.287 199.266,365.815 218.466,366.995 222.524 C 370.162 233.417,387.325 237.565,398.200 230.065 L 399.800 228.961 399.800 210.381 L 399.800 191.800 397.658 190.369 C 392.960 187.229,385.848 186.031,380.000 187.395 M3.697 210.277 L 3.800 233.000 14.600 233.112 C 23.570 233.206,25.863 233.113,28.130 232.562 C 39.326 229.843,42.217 216.128,33.003 209.447 C 32.228 208.884,32.246 208.830,33.708 207.411 C 39.046 202.226,36.770 192.800,29.289 189.115 L 26.620 187.800 15.107 187.677 L 3.593 187.555 3.697 210.277 M55.892 188.289 C 55.625 189.206,48.568 209.630,44.590 221.000 C 42.897 225.840,41.270 230.565,40.975 231.500 L 40.438 233.200 46.572 233.200 L 52.706 233.200 53.775 229.700 C 54.363 227.775,54.984 225.750,55.155 225.200 L 55.466 224.200 61.708 224.090 L 67.949 223.980 69.388 228.590 L 70.828 233.200 76.814 233.200 C 80.106 233.200,82.800 233.048,82.800 232.863 C 82.800 232.677,81.018 227.502,78.840 221.363 C 72.188 202.615,70.405 197.595,68.625 192.600 L 66.914 187.800 61.507 187.689 C 56.614 187.589,56.079 187.646,55.892 188.289 M86.000 210.400 L 86.000 233.200 91.800 233.200 L 97.600 233.200 97.600 224.277 C 97.600 217.071,97.446 214.516,96.800 210.998 C 95.753 205.303,96.258 205.016,98.395 210.089 C 99.348 212.350,102.552 218.475,105.516 223.700 L 110.904 233.200 116.652 233.200 L 122.400 233.200 122.400 210.400 L 122.400 187.600 116.800 187.600 L 111.200 187.600 111.202 198.100 C 111.203 205.585,111.378 209.678,111.812 212.356 C 112.436 216.204,112.353 217.379,111.596 215.390 C 109.760 210.561,107.514 206.057,102.673 197.500 L 97.073 187.600 91.536 187.600 L 86.000 187.600 86.000 210.400 M130.400 210.372 L 130.400 233.200 140.136 233.200 C 155.132 233.200,160.111 231.402,163.698 224.689 C 164.910 222.421,165.320 201.593,164.226 197.831 C 163.058 193.812,159.541 190.436,154.600 188.591 C 152.868 187.944,151.115 187.824,141.500 187.694 L 130.400 187.544 130.400 210.372 M171.600 210.400 L 171.600 233.200 177.400 233.200 L 183.200 233.200 183.200 225.773 L 183.200 218.347 184.293 218.473 C 185.196 218.578,186.309 219.863,190.729 225.905 L 196.072 233.211 208.915 233.105 L 221.757 233.000 223.147 228.490 L 224.536 223.980 230.699 224.090 L 236.862 224.200 238.331 228.600 L 239.800 233.000 245.900 233.110 C 249.255 233.171,252.000 233.145,252.000 233.053 C 252.000 232.960,249.382 225.530,246.181 216.542 C 242.981 207.554,239.356 197.365,238.125 193.900 L 235.888 187.600 230.597 187.600 L 225.307 187.600 224.473 189.900 C 223.587 192.344,212.126 225.278,210.692 229.500 C 209.597 232.725,210.100 233.040,203.819 225.195 C 197.335 217.096,197.549 217.525,199.535 216.629 C 208.466 212.602,209.273 195.837,200.798 190.399 C 196.955 187.933,194.780 187.600,182.509 187.600 L 171.600 187.600 171.600 210.400 M267.200 210.411 L 267.200 233.222 272.900 233.111 L 278.600 233.000 278.703 210.300 L 278.807 187.600 273.003 187.600 L 267.200 187.600 267.200 210.411 M286.000 210.400 L 286.000 233.200 291.800 233.200 L 297.600 233.200 297.600 224.396 C 297.600 216.432,297.192 211.417,296.169 206.800 C 295.726 204.803,297.071 206.884,298.623 210.600 C 299.451 212.580,302.569 218.475,305.554 223.700 L 310.980 233.200 316.690 233.200 L 322.400 233.200 322.400 210.400 L 322.400 187.600 316.800 187.600 L 311.200 187.600 311.194 197.700 C 311.189 205.398,311.348 208.727,311.863 211.697 C 312.417 214.895,312.343 217.416,311.742 215.800 C 310.262 211.821,306.710 204.710,302.401 197.100 L 297.023 187.600 291.511 187.600 L 286.000 187.600 286.000 210.400 M330.097 210.300 L 330.200 233.000 335.892 233.111 L 341.583 233.222 341.692 225.311 L 341.800 217.400 350.600 217.200 L 359.400 217.000 359.400 212.000 L 359.400 207.000 350.600 206.800 L 341.800 206.600 341.800 202.448 L 341.800 198.297 351.800 198.248 L 361.800 198.200 361.912 192.900 L 362.023 187.600 346.008 187.600 L 329.993 187.600 330.097 210.300 M24.680 197.801 C 28.550 200.512,25.987 205.112,20.394 205.495 C 15.145 205.855,15.200 205.900,15.200 201.192 L 15.200 197.200 19.511 197.200 C 22.700 197.200,24.045 197.357,24.680 197.801 M389.868 198.272 C 392.563 199.649,392.799 200.609,392.799 210.200 C 392.799 219.826,392.569 220.747,389.821 222.153 C 386.499 223.852,380.913 223.248,378.757 220.956 C 377.628 219.755,377.032 203.138,378.031 200.725 C 379.374 197.482,385.742 196.162,389.868 198.272 M151.472 199.039 C 153.465 200.520,153.588 201.162,153.594 210.113 C 153.603 221.975,153.326 222.400,145.613 222.400 L 141.600 222.400 141.600 210.165 L 141.600 197.929 145.972 198.065 C 149.653 198.179,150.522 198.333,151.472 199.039 M192.604 198.576 C 195.422 199.753,196.606 204.214,194.733 206.595 C 193.388 208.304,191.698 208.800,187.213 208.800 L 183.200 208.800 183.200 203.400 L 183.200 198.000 187.213 198.000 C 189.800 198.000,191.715 198.205,192.604 198.576 M64.627 213.474 C 64.252 214.452,58.400 214.191,58.400 213.196 C 58.400 212.301,61.156 201.231,61.536 200.600 C 61.847 200.084,64.895 212.776,64.627 213.474 M232.531 207.171 C 233.317 210.565,233.868 213.490,233.756 213.671 C 233.502 214.082,227.198 214.110,227.206 213.700 C 227.209 213.535,227.837 210.880,228.601 207.800 C 229.366 204.720,230.093 201.769,230.218 201.242 C 230.601 199.620,231.046 200.762,232.531 207.171 M24.385 214.192 C 30.528 217.369,27.184 223.200,19.220 223.200 L 15.200 223.200 15.200 218.400 L 15.200 213.600 19.220 213.600 C 21.987 213.600,23.597 213.785,24.385 214.192 M6.500 279.910 L 0.000 280.020 0.000 287.010 L 0.000 294.000 36.161 294.000 L 72.322 294.000 74.821 297.500 C 85.920 313.049,104.670 330.867,118.049 338.579 C 118.792 339.007,121.359 340.494,123.753 341.882 C 192.064 381.493,279.949 361.327,325.326 295.630 L 326.452 294.000 363.226 294.000 L 400.000 294.000 400.000 287.000 L 400.000 280.000 391.900 279.971 C 364.890 279.876,11.829 279.820,6.500 279.910 M394.800 337.663 C 379.920 360.339,361.740 379.757,340.084 396.105 C 339.141 396.817,337.639 397.985,336.746 398.700 L 335.124 400.000 367.562 400.000 L 400.000 400.000 400.000 365.000 C 400.000 345.750,399.955 330.010,399.900 330.022 C 399.845 330.034,397.550 333.472,394.800 337.663 M0.000 365.933 L 0.000 400.000 31.800 400.000 C 49.290 400.000,63.600 399.933,63.600 399.852 C 63.600 399.711,56.210 394.028,53.488 392.076 C 48.585 388.558,35.692 376.569,28.204 368.562 C 19.682 359.450,11.638 349.160,3.734 337.259 C 1.929 334.542,0.350 332.217,0.226 332.093 C 0.102 331.968,0.000 347.197,0.000 365.933 " stroke="none" fill="#fbfbfb" fill-rule="evenodd"></path><path id="path3" d="M99.900 146.700 C 154.955 146.756,245.045 146.756,300.100 146.700 C 355.155 146.644,310.110 146.598,200.000 146.598 C 89.890 146.598,44.845 146.644,99.900 146.700 M383.700 186.691 C 384.525 186.778,385.875 186.778,386.700 186.691 C 387.525 186.605,386.850 186.534,385.200 186.534 C 383.550 186.534,382.875 186.605,383.700 186.691 M379.400 187.074 C 378.038 187.383,375.174 188.507,375.336 188.669 C 375.420 188.753,376.009 188.613,376.645 188.358 C 377.280 188.103,378.790 187.666,380.000 187.388 C 381.210 187.110,381.750 186.884,381.200 186.887 C 380.650 186.890,379.840 186.974,379.400 187.074 M390.400 187.355 C 391.610 187.651,393.120 188.103,393.755 188.358 C 394.391 188.613,394.980 188.753,395.064 188.669 C 395.352 188.381,391.805 187.227,390.000 187.021 C 388.279 186.825,388.297 186.839,390.400 187.355 M15.010 187.571 L 26.620 187.800 29.289 189.115 C 36.770 192.800,39.046 202.226,33.708 207.411 C 32.246 208.830,32.228 208.884,33.003 209.447 C 36.568 212.032,38.000 214.552,38.432 219.000 L 38.742 222.200 38.637 219.000 C 38.498 214.739,37.294 212.384,33.907 209.747 L 32.815 208.896 34.265 207.358 C 39.480 201.829,36.990 192.508,29.284 188.712 L 26.620 187.400 15.010 187.371 L 3.400 187.343 15.010 187.571 M57.600 187.466 C 61.894 187.757,67.111 187.776,66.939 187.500 C 66.837 187.335,64.288 187.232,61.276 187.272 C 58.264 187.312,56.610 187.399,57.600 187.466 M85.784 187.700 C 85.678 187.975,85.639 198.370,85.696 210.800 L 85.800 233.400 91.800 233.400 L 97.800 233.400 97.811 224.200 L 97.822 215.000 97.704 224.100 L 97.585 233.200 91.793 233.200 L 86.000 233.200 86.000 210.400 L 86.000 187.600 91.456 187.600 C 96.170 187.600,96.989 187.695,97.478 188.300 C 97.989 188.932,98.002 188.912,97.608 188.100 C 97.088 187.028,86.182 186.659,85.784 187.700 M116.700 187.493 L 122.400 187.622 122.400 210.431 L 122.400 233.240 116.419 233.120 C 113.129 233.054,110.578 233.140,110.750 233.311 C 110.922 233.483,113.659 233.573,116.831 233.511 L 122.600 233.400 122.600 210.400 L 122.600 187.400 116.800 187.382 L 111.000 187.365 116.700 187.493 M130.000 210.400 L 130.000 233.600 139.500 233.508 L 149.000 233.415 139.700 233.300 L 130.400 233.185 130.400 210.364 L 130.400 187.544 141.629 187.672 C 147.806 187.742,152.441 187.683,151.929 187.540 C 151.418 187.397,146.275 187.262,140.500 187.240 L 130.000 187.200 130.000 210.400 M171.384 187.700 C 171.278 187.975,171.241 198.280,171.300 210.600 L 171.407 233.000 171.503 210.300 L 171.600 187.600 182.509 187.600 C 196.672 187.600,200.879 188.715,203.891 193.266 C 205.041 195.004,205.668 195.391,204.593 193.700 C 202.783 190.852,199.808 188.880,195.742 187.833 C 192.514 187.002,171.694 186.888,171.384 187.700 M225.067 187.467 C 224.920 187.613,224.803 187.928,224.806 188.167 C 224.810 188.433,224.932 188.412,225.122 188.112 C 225.334 187.779,227.137 187.585,230.816 187.500 L 236.200 187.375 230.767 187.287 C 227.778 187.239,225.213 187.320,225.067 187.467 M266.984 187.700 C 266.878 187.975,266.841 198.100,266.900 210.200 L 267.007 232.200 267.103 209.911 L 267.200 187.621 273.100 187.499 L 279.000 187.377 273.087 187.288 C 268.659 187.222,267.127 187.326,266.984 187.700 M291.364 187.499 C 296.048 187.604,297.017 187.732,297.487 188.312 C 297.984 188.926,297.997 188.903,297.608 188.100 C 297.183 187.223,297.028 187.202,291.486 187.288 L 285.800 187.375 291.364 187.499 M310.800 197.700 C 310.800 205.372,310.962 209.044,311.400 211.335 C 312.098 214.983,312.135 215.628,311.600 214.800 C 311.387 214.470,311.212 214.380,311.212 214.600 C 311.212 214.820,311.380 215.265,311.584 215.588 C 312.400 216.877,312.505 215.403,311.863 211.697 C 311.348 208.727,311.189 205.398,311.194 197.700 L 311.200 187.600 316.800 187.600 L 322.400 187.600 322.400 210.400 L 322.400 233.200 316.744 233.200 C 311.840 233.200,311.013 233.107,310.522 232.500 C 310.012 231.870,310.000 231.891,310.398 232.711 C 310.831 233.605,310.946 233.619,316.720 233.511 L 322.600 233.400 322.703 210.300 L 322.806 187.200 316.803 187.200 L 310.800 187.200 310.800 197.700 M337.900 187.500 C 342.355 187.564,349.645 187.564,354.100 187.500 C 358.555 187.435,354.910 187.382,346.000 187.382 C 337.090 187.382,333.445 187.435,337.900 187.500 M154.400 188.600 C 156.226 189.303,156.945 189.293,155.400 188.586 C 154.740 188.283,153.930 188.042,153.600 188.048 C 153.270 188.055,153.630 188.303,154.400 188.600 M372.790 189.952 C 367.003 193.588,366.207 195.974,366.170 209.800 L 366.141 221.000 366.370 209.800 C 366.654 195.960,367.509 193.439,373.017 190.211 C 373.997 189.637,374.800 189.084,374.800 188.983 C 374.800 188.701,374.722 188.739,372.790 189.952 M395.600 188.900 C 395.710 189.024,396.788 189.789,397.996 190.600 C 399.204 191.411,399.883 191.734,399.505 191.317 C 399.128 190.899,398.050 190.134,397.109 189.616 C 396.169 189.099,395.490 188.776,395.600 188.900 M156.800 189.352 C 156.800 189.446,157.593 189.989,158.563 190.557 C 159.532 191.125,160.991 192.357,161.805 193.295 C 162.803 194.445,163.008 194.587,162.437 193.732 C 161.237 191.934,156.800 188.486,156.800 189.352 M298.800 190.800 C 299.249 191.680,299.706 192.400,299.816 192.400 C 299.926 192.400,299.649 191.680,299.200 190.800 C 298.751 189.920,298.294 189.200,298.184 189.200 C 298.074 189.200,298.351 189.920,298.800 190.800 M361.991 194.000 L 361.800 198.200 356.400 198.418 L 351.000 198.636 356.251 198.718 C 362.690 198.819,362.471 198.998,362.306 193.741 L 362.183 189.800 361.991 194.000 M300.600 194.000 C 300.941 194.660,301.311 195.200,301.421 195.200 C 301.531 195.200,301.341 194.660,301.000 194.000 C 300.659 193.340,300.289 192.800,300.179 192.800 C 300.069 192.800,300.259 193.340,300.600 194.000 M101.800 196.000 C 102.141 196.660,102.511 197.200,102.621 197.200 C 102.731 197.200,102.541 196.660,102.200 196.000 C 101.859 195.340,101.489 194.800,101.379 194.800 C 101.269 194.800,101.459 195.340,101.800 196.000 M205.988 197.817 C 206.325 199.222,206.662 200.193,206.737 199.974 C 206.915 199.458,206.002 195.649,205.648 195.429 C 205.498 195.337,205.651 196.411,205.988 197.817 M302.200 196.800 C 302.541 197.460,302.911 198.000,303.021 198.000 C 303.131 198.000,302.941 197.460,302.600 196.800 C 302.259 196.140,301.889 195.600,301.779 195.600 C 301.669 195.600,301.859 196.140,302.200 196.800 M19.600 197.575 C 25.592 197.868,27.023 199.178,25.453 202.934 C 25.110 203.757,24.989 204.330,25.185 204.209 C 26.013 203.697,26.471 201.226,26.000 199.801 C 25.243 197.506,24.418 197.190,19.411 197.275 L 15.000 197.350 19.600 197.575 M381.917 197.595 C 377.879 198.812,377.530 199.913,377.678 210.969 L 377.800 220.067 379.106 221.234 C 379.825 221.875,380.635 222.399,380.906 222.399 C 381.178 222.398,380.811 222.038,380.090 221.598 C 378.158 220.420,378.000 219.560,378.000 210.193 C 378.000 199.021,378.397 198.256,384.516 197.612 C 387.292 197.320,387.318 197.308,385.200 197.289 C 383.990 197.278,382.512 197.416,381.917 197.595 M388.701 198.099 C 389.417 198.377,390.571 199.142,391.266 199.798 C 392.200 200.679,392.413 200.772,392.081 200.152 C 391.513 199.090,390.014 198.100,388.542 197.814 C 387.487 197.610,387.499 197.631,388.701 198.099 M141.694 210.300 L 141.788 222.600 141.900 210.500 L 142.012 198.400 145.619 198.400 C 149.588 198.400,151.512 198.968,152.548 200.447 C 152.906 200.959,153.200 201.189,153.200 200.959 C 153.200 199.205,150.012 198.000,145.374 198.000 L 141.600 198.000 141.694 210.300 M183.199 198.300 C 183.199 198.465,184.864 198.541,186.899 198.468 C 193.052 198.248,195.195 199.554,195.199 203.526 C 195.200 205.672,194.706 206.625,193.074 207.620 C 192.374 208.047,192.043 208.398,192.340 208.399 C 196.337 208.410,196.557 200.227,192.604 198.576 C 191.154 197.970,183.201 197.737,183.199 198.300 M341.772 198.530 C 341.660 198.822,341.620 200.757,341.684 202.830 L 341.800 206.600 350.700 206.800 C 355.596 206.910,359.601 206.865,359.600 206.700 C 359.600 206.535,355.640 206.400,350.800 206.400 L 342.000 206.400 342.000 202.433 C 342.000 199.634,342.147 198.407,342.500 198.265 C 342.892 198.107,342.889 198.056,342.487 198.032 C 342.206 198.014,341.883 198.239,341.772 198.530 M303.800 199.600 C 304.141 200.260,304.511 200.800,304.621 200.800 C 304.731 200.800,304.541 200.260,304.200 199.600 C 303.859 198.940,303.489 198.400,303.379 198.400 C 303.269 198.400,303.459 198.940,303.800 199.600 M164.975 210.400 C 164.975 216.230,165.031 218.615,165.099 215.700 C 165.167 212.785,165.167 208.015,165.099 205.100 C 165.031 202.185,164.975 204.570,164.975 210.400 M206.861 202.200 C 206.552 209.575,203.990 214.620,199.535 216.629 C 197.549 217.525,197.335 217.096,203.819 225.195 C 208.877 231.513,210.000 232.672,210.000 231.576 C 210.000 231.343,209.847 231.247,209.661 231.363 C 209.322 231.572,207.638 229.590,202.043 222.400 C 200.417 220.310,198.918 218.385,198.713 218.123 C 198.451 217.788,198.820 217.402,199.960 216.821 C 204.508 214.500,207.795 207.635,207.091 201.924 C 206.937 200.670,206.924 200.684,206.861 202.200 M306.856 205.063 C 308.035 207.298,309.066 209.062,309.147 208.983 C 309.324 208.810,305.686 201.969,305.115 201.400 C 304.894 201.180,305.678 202.828,306.856 205.063 M153.370 210.200 C 153.371 215.040,153.429 216.965,153.499 214.478 C 153.569 211.991,153.569 208.031,153.498 205.678 C 153.428 203.325,153.370 205.360,153.370 210.200 M17.511 205.493 C 18.451 205.578,19.891 205.577,20.711 205.491 C 21.530 205.405,20.760 205.336,19.000 205.337 C 17.240 205.339,16.570 205.409,17.511 205.493 M96.180 206.517 C 96.026 206.912,96.013 207.347,96.151 207.484 C 96.288 207.621,96.406 207.478,96.414 207.167 C 96.422 206.855,96.686 207.050,97.000 207.600 C 97.314 208.150,97.572 208.420,97.572 208.200 C 97.572 207.126,96.463 205.786,96.180 206.517 M296.013 206.300 C 296.006 206.575,296.152 206.800,296.339 206.800 C 296.525 206.800,296.873 207.205,297.112 207.700 C 297.351 208.195,297.558 208.395,297.573 208.144 C 297.588 207.894,297.246 207.264,296.813 206.744 C 296.381 206.225,296.021 206.025,296.013 206.300 M96.495 208.800 C 96.495 209.350,96.632 210.340,96.800 211.000 C 97.072 212.070,97.105 212.092,97.105 211.200 C 97.105 210.650,96.968 209.660,96.800 209.000 C 96.528 207.930,96.495 207.908,96.495 208.800 M185.315 208.696 C 186.588 208.776,188.568 208.775,189.715 208.694 C 190.862 208.614,189.820 208.549,187.400 208.550 C 184.980 208.551,184.042 208.616,185.315 208.696 M309.228 209.800 C 309.228 210.020,309.486 210.650,309.800 211.200 C 310.114 211.750,310.372 212.020,310.372 211.800 C 310.372 211.580,310.114 210.950,309.800 210.400 C 309.486 209.850,309.228 209.580,309.228 209.800 M298.828 211.800 C 298.828 212.020,299.086 212.650,299.400 213.200 C 299.714 213.750,299.972 214.020,299.972 213.800 C 299.972 213.580,299.714 212.950,299.400 212.400 C 299.086 211.850,298.828 211.580,298.828 211.800 M233.600 213.133 C 233.600 213.445,232.502 213.627,230.300 213.680 L 227.000 213.761 230.162 213.898 C 233.086 214.026,234.575 213.641,233.873 212.940 C 233.723 212.790,233.600 212.877,233.600 213.133 M19.400 213.974 C 26.350 214.331,28.903 217.262,25.755 221.269 L 24.709 222.600 25.955 221.294 C 29.693 217.372,26.261 213.546,19.120 213.674 L 15.000 213.748 19.400 213.974 M59.911 213.893 C 60.851 213.978,62.291 213.977,63.111 213.891 C 63.930 213.805,63.160 213.736,61.400 213.737 C 59.640 213.739,58.970 213.809,59.911 213.893 M111.778 215.235 C 111.631 215.474,111.710 215.870,111.955 216.115 C 112.282 216.442,112.400 216.326,112.400 215.680 C 112.400 214.714,112.192 214.565,111.778 215.235 M300.459 215.400 C 300.752 216.230,303.678 221.200,303.873 221.200 C 303.985 221.200,303.495 220.165,302.784 218.900 C 301.495 216.605,300.190 214.642,300.459 215.400 M350.600 217.188 L 341.800 217.400 341.691 225.320 L 341.583 233.241 335.791 233.120 C 332.605 233.054,329.999 233.140,329.999 233.311 C 330.000 233.482,332.655 233.572,335.900 233.511 L 341.800 233.400 341.908 225.500 L 342.017 217.600 350.808 217.600 C 356.403 217.600,359.600 217.455,359.600 217.200 C 359.600 216.980,359.555 216.840,359.500 216.888 C 359.445 216.937,355.440 217.072,350.600 217.188 M77.699 218.100 C 77.800 218.375,78.198 219.557,78.582 220.726 C 78.967 221.895,79.352 222.781,79.438 222.695 C 79.641 222.493,77.992 217.600,77.720 217.600 C 77.607 217.600,77.597 217.825,77.699 218.100 M183.200 218.745 C 183.200 218.934,183.621 219.008,184.137 218.910 C 184.916 218.761,185.425 219.206,187.174 221.565 C 188.330 223.124,189.371 224.400,189.487 224.400 C 189.603 224.400,189.527 224.175,189.317 223.900 C 189.108 223.625,188.085 222.275,187.045 220.900 C 185.311 218.609,183.200 217.425,183.200 218.745 M152.403 220.194 C 152.111 220.740,151.527 221.296,151.106 221.430 C 150.684 221.564,150.428 221.761,150.536 221.869 C 150.872 222.205,152.361 221.221,152.823 220.357 C 153.066 219.903,153.191 219.457,153.100 219.366 C 153.009 219.276,152.695 219.648,152.403 220.194 M104.200 222.000 C 104.541 222.660,104.911 223.200,105.021 223.200 C 105.131 223.200,104.941 222.660,104.600 222.000 C 104.259 221.340,103.889 220.800,103.779 220.800 C 103.669 220.800,103.859 221.340,104.200 222.000 M366.649 222.400 C 367.080 224.839,368.820 227.512,371.200 229.387 L 372.600 230.491 371.377 229.320 C 369.340 227.369,367.913 225.269,367.138 223.080 C 366.601 221.561,366.469 221.378,366.649 222.400 M38.046 222.867 C 38.021 223.234,37.896 223.864,37.770 224.267 C 37.552 224.962,37.563 224.963,37.997 224.287 C 38.248 223.896,38.373 223.266,38.273 222.887 C 38.111 222.268,38.088 222.266,38.046 222.867 M17.315 223.096 C 18.588 223.176,20.568 223.175,21.715 223.094 C 22.862 223.014,21.820 222.949,19.400 222.950 C 16.980 222.951,16.042 223.016,17.315 223.096 M383.900 223.089 C 384.615 223.178,385.785 223.178,386.500 223.089 C 387.215 223.001,386.630 222.928,385.200 222.928 C 383.770 222.928,383.185 223.001,383.900 223.089 M79.600 223.300 C 79.600 223.428,80.320 225.543,81.200 228.000 C 82.080 230.457,82.800 232.632,82.800 232.833 C 82.800 233.039,80.184 233.200,76.833 233.200 L 70.867 233.200 70.465 232.100 C 70.244 231.495,70.049 231.237,70.032 231.526 C 69.917 233.428,70.498 233.600,77.014 233.600 C 84.260 233.600,83.807 234.160,81.581 227.948 C 80.111 223.842,79.600 222.644,79.600 223.300 M305.800 224.800 C 306.141 225.460,306.511 226.000,306.621 226.000 C 306.731 226.000,306.541 225.460,306.200 224.800 C 305.859 224.140,305.489 223.600,305.379 223.600 C 305.269 223.600,305.459 224.140,305.800 224.800 M55.461 224.300 C 55.358 224.465,57.192 224.553,59.537 224.495 C 67.402 224.300,68.247 224.152,61.924 224.076 C 58.472 224.034,55.563 224.135,55.461 224.300 M230.383 224.294 C 234.673 224.383,236.673 224.572,236.914 224.911 C 237.164 225.264,237.215 225.233,237.098 224.800 C 236.961 224.300,235.878 224.197,230.567 224.183 L 224.200 224.167 230.383 224.294 M68.061 225.200 C 68.061 225.530,68.303 226.430,68.600 227.200 C 68.897 227.970,69.139 228.330,69.139 228.000 C 69.139 227.670,68.897 226.770,68.600 226.000 C 68.303 225.230,68.061 224.870,68.061 225.200 M190.816 226.563 C 191.568 227.609,192.356 228.573,192.567 228.703 C 192.778 228.833,192.335 228.084,191.584 227.037 C 190.832 225.991,190.044 225.027,189.833 224.897 C 189.622 224.767,190.065 225.516,190.816 226.563 M249.454 225.600 C 249.589 226.150,249.945 227.140,250.245 227.800 C 250.684 228.764,250.743 228.803,250.546 228.000 C 250.411 227.450,250.055 226.460,249.755 225.800 C 249.316 224.836,249.257 224.797,249.454 225.600 M36.883 226.177 C 36.638 226.716,35.760 227.932,34.933 228.879 C 33.553 230.458,33.537 230.501,34.743 229.400 C 36.130 228.133,37.816 225.682,37.511 225.377 C 37.411 225.278,37.129 225.638,36.883 226.177 M307.400 227.600 C 307.741 228.260,308.111 228.800,308.221 228.800 C 308.331 228.800,308.141 228.260,307.800 227.600 C 307.459 226.940,307.089 226.400,306.979 226.400 C 306.869 226.400,307.059 226.940,307.400 227.600 M160.975 228.500 L 159.800 229.800 161.100 228.625 C 162.312 227.530,162.584 227.200,162.275 227.200 C 162.206 227.200,161.621 227.785,160.975 228.500 M193.077 229.700 C 193.283 229.975,194.040 230.965,194.759 231.900 L 196.067 233.600 208.810 233.600 C 215.819 233.600,221.636 233.465,221.738 233.300 C 221.841 233.135,216.110 233.050,209.004 233.111 L 196.084 233.221 194.608 231.211 C 193.796 230.105,193.035 229.200,192.917 229.200 C 192.799 229.200,192.871 229.425,193.077 229.700 M309.000 230.400 C 309.341 231.060,309.711 231.600,309.821 231.600 C 309.931 231.600,309.741 231.060,309.400 230.400 C 309.059 229.740,308.689 229.200,308.579 229.200 C 308.469 229.200,308.659 229.740,309.000 230.400 M251.339 230.800 C 251.422 231.130,251.620 231.814,251.778 232.320 L 252.067 233.240 245.833 233.120 C 242.404 233.054,239.599 233.135,239.599 233.300 C 239.600 233.743,251.911 233.667,252.186 233.222 C 252.315 233.014,252.143 232.249,251.804 231.522 C 251.465 230.795,251.256 230.470,251.339 230.800 M266.902 232.800 C 267.080 233.451,278.799 233.954,278.801 233.311 C 278.801 233.140,276.253 233.055,273.138 233.122 C 268.824 233.215,267.387 233.119,267.107 232.722 C 266.821 232.316,266.776 232.334,266.902 232.800 M3.599 233.300 C 3.600 233.465,8.235 233.563,13.900 233.517 C 24.174 233.434,22.989 233.298,10.299 233.103 C 6.614 233.046,3.599 233.135,3.599 233.300 M43.519 233.498 C 45.344 233.572,48.224 233.572,49.919 233.497 C 51.614 233.422,50.120 233.361,46.600 233.362 C 43.080 233.362,41.694 233.424,43.519 233.498 M174.518 233.498 C 176.233 233.573,178.933 233.572,180.518 233.497 C 182.103 233.421,180.700 233.359,177.400 233.360 C 174.100 233.361,172.803 233.422,174.518 233.498 M288.918 233.498 C 290.633 233.573,293.333 233.572,294.918 233.497 C 296.503 233.421,295.100 233.359,291.800 233.360 C 288.500 233.361,287.203 233.422,288.918 233.498 M387.300 233.876 C 387.685 233.976,388.315 233.976,388.700 233.876 C 389.085 233.775,388.770 233.693,388.000 233.693 C 387.230 233.693,386.915 233.775,387.300 233.876 M3.100 279.898 C 4.915 279.972,7.885 279.972,9.700 279.898 C 11.515 279.823,10.030 279.763,6.400 279.763 C 2.770 279.763,1.285 279.823,3.100 279.898 M72.700 279.893 C 73.635 279.977,75.165 279.977,76.100 279.893 C 77.035 279.809,76.270 279.740,74.400 279.740 C 72.530 279.740,71.765 279.809,72.700 279.893 M140.932 279.900 C 174.335 279.956,228.875 279.956,262.132 279.900 C 295.390 279.844,268.060 279.797,201.400 279.797 C 134.740 279.797,107.530 279.844,140.932 279.900 M324.100 279.891 C 324.925 279.978,326.275 279.978,327.100 279.891 C 327.925 279.805,327.250 279.734,325.600 279.734 C 323.950 279.734,323.275 279.805,324.100 279.891 M387.722 279.899 C 390.099 279.970,393.879 279.969,396.122 279.898 C 398.365 279.827,396.420 279.769,391.800 279.769 C 387.180 279.770,385.345 279.828,387.722 279.899 " stroke="none" fill="#848db5" fill-rule="evenodd"></path><path id="path4" d="M90.800 2.241 C 88.490 3.465,85.742 4.991,84.694 5.633 C 83.646 6.275,82.724 6.800,82.645 6.800 C 82.080 6.800,72.253 13.066,65.400 17.796 C 46.901 30.563,28.205 48.509,13.481 67.630 C 9.485 72.820,-0.189 87.144,0.104 87.438 C 0.211 87.544,1.165 86.229,2.225 84.516 C 5.795 78.744,14.884 66.108,18.134 62.400 C 18.616 61.850,20.352 59.788,21.993 57.818 C 39.026 37.368,65.133 16.335,89.140 3.721 C 94.474 0.918,96.029 -0.005,95.389 0.008 C 95.175 0.013,93.110 1.018,90.800 2.241 M303.233 0.145 C 303.325 0.224,306.010 1.688,309.200 3.397 C 341.032 20.455,368.308 44.413,389.581 74.000 C 391.400 76.530,393.075 78.780,393.303 79.000 C 393.976 79.650,393.232 78.462,391.048 75.400 C 374.374 52.025,356.909 34.660,332.200 16.888 C 329.718 15.103,321.017 9.569,316.765 7.073 C 310.042 3.124,301.808 -1.092,303.233 0.145 M186.600 56.767 C 185.280 56.895,189.690 56.945,196.400 56.877 C 203.110 56.810,208.870 56.696,209.200 56.624 C 210.263 56.392,189.085 56.526,186.600 56.767 M211.107 57.090 C 211.826 57.179,212.906 57.177,213.507 57.086 C 214.108 56.995,213.520 56.922,212.200 56.924 C 210.880 56.926,210.388 57.001,211.107 57.090 M179.800 57.476 C 133.822 63.447,91.187 91.298,68.344 130.284 C 67.211 132.218,66.205 133.890,66.109 134.000 C 66.012 134.110,51.054 134.292,32.867 134.405 L -0.200 134.609 32.910 134.705 L 66.020 134.800 67.110 132.945 C 91.306 91.772,131.396 64.973,179.200 58.016 C 181.950 57.616,183.480 57.296,182.600 57.304 C 181.720 57.313,180.460 57.390,179.800 57.476 M217.400 57.650 C 266.979 64.960,307.326 91.080,330.396 130.800 C 331.354 132.450,332.411 134.025,332.745 134.300 C 333.223 134.693,340.513 134.779,366.776 134.703 L 400.200 134.607 366.608 134.403 L 333.016 134.200 332.208 132.872 C 308.268 93.534,274.566 69.129,230.800 59.438 C 227.153 58.630,217.382 57.186,216.000 57.250 C 215.450 57.276,216.080 57.456,217.400 57.650 M395.963 83.300 C 396.426 84.015,397.469 85.720,398.280 87.090 C 399.091 88.459,399.831 89.502,399.925 89.409 C 400.118 89.215,395.639 82.000,395.325 82.000 C 395.213 82.000,395.500 82.585,395.963 83.300 M36.054 294.397 L 72.307 294.600 75.598 299.200 C 93.576 324.335,120.394 344.193,149.939 354.247 C 152.215 355.022,154.170 355.564,154.282 355.451 C 154.394 355.339,153.442 354.944,152.167 354.573 C 144.792 352.429,132.335 346.856,123.600 341.793 C 121.290 340.454,118.792 339.007,118.049 338.579 C 104.670 330.867,85.920 313.049,74.821 297.500 L 72.322 294.000 36.061 294.097 L -0.200 294.194 36.054 294.397 M324.521 296.825 C 320.024 303.436,313.027 311.679,306.300 318.289 C 304.375 320.181,302.800 321.890,302.800 322.088 C 302.800 323.563,317.834 306.777,323.478 299.000 L 326.671 294.600 363.436 294.397 L 400.200 294.194 363.321 294.097 L 326.443 294.000 324.521 296.825 M299.800 324.251 C 287.694 335.242,271.365 345.216,255.000 351.618 C 251.822 352.861,250.484 353.573,252.400 353.001 C 261.582 350.260,279.224 340.795,290.200 332.722 C 291.341 331.882,297.562 326.880,298.600 325.967 C 302.054 322.928,302.567 322.424,302.200 322.430 C 301.980 322.433,300.900 323.253,299.800 324.251 M398.383 331.508 C 397.623 332.759,396.585 334.462,396.077 335.291 C 395.570 336.121,395.239 336.800,395.342 336.800 C 395.638 336.800,400.114 329.581,399.931 329.398 C 399.841 329.307,399.144 330.257,398.383 331.508 M0.000 331.402 C 0.000 331.652,5.890 340.589,9.066 345.158 C 19.528 360.212,41.755 383.685,53.493 392.076 C 54.204 392.584,56.850 394.575,59.373 396.500 C 61.896 398.425,64.105 399.996,64.280 399.991 C 64.686 399.980,63.391 398.947,59.573 396.235 C 57.908 395.052,55.727 393.391,54.725 392.542 C 53.723 391.694,51.496 389.830,49.776 388.400 C 31.858 373.503,13.926 353.093,2.244 334.300 C 0.481 331.463,0.000 330.842,0.000 331.402 M392.158 341.100 C 379.334 359.610,364.108 376.176,347.300 389.907 C 343.945 392.648,341.200 394.982,341.200 395.094 C 341.200 395.324,341.127 395.378,345.200 392.170 C 358.629 381.594,373.987 365.949,385.030 351.598 C 388.482 347.111,395.384 337.200,395.057 337.200 C 394.948 337.200,393.644 338.955,392.158 341.100 M248.400 354.054 C 247.208 354.565,246.990 354.747,247.756 354.591 C 249.215 354.295,251.602 353.262,250.800 353.274 C 250.470 353.279,249.390 353.630,248.400 354.054 M155.574 356.003 C 156.856 356.564,168.112 359.366,172.265 360.159 C 184.949 362.581,205.731 363.271,216.200 361.619 L 218.600 361.240 216.200 361.416 C 196.367 362.874,178.747 361.609,162.800 357.583 C 159.390 356.723,156.150 355.919,155.600 355.798 L 154.600 355.577 155.574 356.003 M241.200 356.263 C 240.210 356.584,237.780 357.269,235.800 357.786 C 233.820 358.303,232.585 358.742,233.055 358.763 C 233.526 358.783,235.463 358.350,237.361 357.800 C 239.259 357.250,241.034 356.792,241.306 356.782 C 242.043 356.755,244.298 355.664,243.600 355.672 C 243.270 355.676,242.190 355.942,241.200 356.263 M224.600 359.951 C 221.300 360.527,219.006 361.057,219.502 361.127 C 220.408 361.257,231.604 359.329,231.949 358.984 C 232.259 358.674,230.844 358.860,224.600 359.951 M339.400 396.101 C 336.485 398.229,334.359 400.000,334.721 400.000 C 335.107 400.000,337.205 398.452,339.721 396.312 C 341.257 395.005,341.070 394.882,339.400 396.101 " stroke="none" fill="#c1726d" fill-rule="evenodd"></path></g></svg>