<?xml version="1.0" standalone="no"?>
<!DOCTYPE svg PUBLIC "-//W3C//DTD SVG 20010904//EN"
 "http://www.w3.org/TR/2001/REC-SVG-20010904/DTD/svg10.dtd">
<svg version="1.0" xmlns="http://www.w3.org/2000/svg"
 width="830.000000pt" height="141.000000pt" viewBox="0 0 830.000000 141.000000"
 preserveAspectRatio="xMidYMid meet">

<g transform="translate(0.000000,141.000000) scale(0.100000,-0.100000)"
fill="#000000" stroke="none">
<path d="M5180 710 l0 -400 1375 0 1375 0 0 400 0 400 -1375 0 -1375 0 0 -400z
m207 274 c-3 -3 -12 -4 -19 -1 -8 3 -5 6 6 6 11 1 17 -2 13 -5z m107 -10 c3
-9 6 -135 6 -280 0 -246 -4 -288 -26 -252 -4 7 -3 8 4 4 9 -5 12 58 12 251 0
142 -4 263 -8 269 -4 7 -16 14 -27 17 -16 4 -15 5 6 6 16 1 29 -5 33 -15z
m423 10 c-3 -3 -12 -4 -19 -1 -8 3 -5 6 6 6 11 1 17 -2 13 -5z m263 -1 c-8 -3
-18 -11 -22 -17 -5 -7 -8 -4 -8 7 0 11 7 17 23 16 15 0 17 -2 7 -6z m53 0 c-7
-2 -19 -2 -25 0 -7 3 -2 5 12 5 14 0 19 -2 13 -5z m650 0 c-46 -2 -120 -2
-165 0 -46 1 -9 3 82 3 91 0 128 -2 83 -3z m-1066 -40 c-3 -10 -5 -4 -5 12 0
17 2 24 5 18 2 -7 2 -21 0 -30z m1883 -24 c0 -5 -11 1 -25 13 -14 12 -25 23
-25 25 0 2 11 -4 25 -13 14 -9 25 -20 25 -25z m-1685 -38 c3 -5 2 -12 -3 -15
-5 -3 -9 1 -9 9 0 17 3 19 12 6z m1625 -96 c0 -5 -5 -3 -10 5 -5 8 -10 20 -10
25 0 6 5 3 10 -5 5 -8 10 -19 10 -25z m160 -31 c0 -8 -5 -12 -10 -9 -6 4 -8
11 -5 16 9 14 15 11 15 -7z m-1843 -89 c0 -8 -4 -12 -9 -9 -5 3 -6 10 -3 15 9
13 12 11 12 -6z m1840 -7 c-3 -8 -6 -5 -6 6 -1 11 2 17 5 13 3 -3 4 -12 1 -19z
m-157 -33 c0 -8 -4 -15 -10 -15 -5 0 -7 7 -4 15 4 8 8 15 10 15 2 0 4 -7 4
-15z m-1584 -17 c0 -10 -1 -18 -3 -18 -1 0 -7 8 -12 18 -7 13 -6 19 2 19 7 0
13 -9 13 -19z m1222 -23 c-3 -3 -9 2 -12 12 -6 14 -5 15 5 6 7 -7 10 -15 7
-18z m483 -18 c-10 -9 -11 -8 -5 6 3 10 9 15 12 12 3 -3 0 -11 -7 -18z m-463
-22 c-3 -3 -9 2 -12 12 -6 14 -5 15 5 6 7 -7 10 -15 7 -18z m442 -8 c0 -2 -10
-12 -22 -23 l-23 -19 19 23 c18 21 26 27 26 19z m-405 -27 c10 -11 16 -20 13
-20 -3 0 -13 9 -23 20 -10 11 -16 20 -13 20 3 0 13 -9 23 -20z m-565 -65 c0
-9 -9 -15 -22 -14 -17 1 -19 2 -5 6 9 2 17 9 17 14 0 5 2 9 5 9 3 0 5 -7 5
-15z m840 5 c0 -5 -5 -10 -11 -10 -5 0 -7 5 -4 10 3 6 8 10 11 10 2 0 4 -4 4
-10z m-1400 -16 c0 -2 -7 -4 -15 -4 -8 0 -15 4 -15 10 0 5 7 7 15 4 8 -4 15
-8 15 -10z m90 6 c0 -5 -15 -9 -32 -9 l-33 1 30 8 c17 4 31 8 33 9 1 0 2 -3 2
-9z m-863 -6 c-3 -3 -12 -4 -19 -1 -8 3 -5 6 6 6 11 1 17 -2 13 -5z m2100 0
c-3 -3 -12 -4 -19 -1 -8 3 -5 6 6 6 11 1 17 -2 13 -5z"/>
<path d="M417 983 c-4 -3 -7 -129 -7 -280 l0 -273 158 0 c184 0 246 13 285 60
57 67 42 161 -36 215 -19 13 -19 16 -6 27 52 42 66 135 29 195 -34 56 -60 63
-248 63 -93 0 -172 -3 -175 -7z m274 -133 c11 -6 19 -21 19 -35 0 -32 -26 -45
-89 -45 l-51 0 0 45 0 45 51 0 c28 0 59 -5 70 -10z m27 -212 c17 -17 15 -44
-4 -62 -11 -11 -35 -16 -80 -16 l-64 0 0 45 0 45 68 0 c40 0 73 -5 80 -12z"/>
<path d="M1220 723 c-51 -148 -95 -274 -98 -280 -3 -10 16 -13 75 -13 l79 0
18 55 17 55 73 0 73 0 15 -52 15 -53 77 -3 c71 -3 77 -1 74 16 -2 10 -43 136
-93 280 l-90 262 -71 0 -71 0 -93 -267z m202 -58 c3 -17 -4 -20 -39 -23 -51
-4 -50 -4 -21 92 l21 71 18 -60 c10 -33 20 -69 21 -80z"/>
<path d="M1910 710 l0 -280 75 0 75 0 0 132 c0 155 -10 156 125 -16 l90 -115
63 0 62 -1 0 280 0 280 -75 0 -75 0 0 -136 c0 -80 -4 -133 -9 -129 -5 3 -55
64 -111 135 l-102 130 -59 0 -59 0 0 -280z"/>
<path d="M2710 709 l0 -281 148 3 c142 4 151 5 207 34 74 38 118 99 133 184
22 122 -20 237 -105 291 -60 39 -121 50 -263 50 l-120 0 0 -281z m295 108 c20
-20 36 -48 40 -70 11 -57 -3 -107 -40 -144 -29 -29 -40 -33 -84 -33 l-51 0 0
140 0 140 51 0 c44 0 55 -4 84 -33z"/>
<path d="M3490 710 l0 -280 75 0 75 0 0 85 0 85 28 0 c25 0 34 -10 76 -85 l48
-85 90 0 90 0 -20 33 c-60 100 -92 160 -92 171 0 8 7 20 17 27 26 22 53 90 53
134 0 82 -60 163 -138 185 -20 5 -97 10 -169 10 l-133 0 0 -280z m268 128 c7
-7 12 -26 12 -43 0 -44 -16 -55 -77 -55 l-53 0 0 55 0 55 53 0 c29 0 58 -5 65
-12z"/>
<path d="M4280 723 c-51 -148 -95 -274 -98 -280 -3 -10 16 -13 75 -13 l79 0
18 55 17 55 73 0 73 0 15 -52 15 -53 77 -3 c71 -3 77 -1 74 16 -2 10 -43 136
-93 280 l-90 262 -71 0 -71 0 -93 -267z m202 -58 c3 -17 -4 -20 -39 -23 -51
-4 -50 -4 -21 92 l21 71 18 -60 c10 -33 20 -69 21 -80z"/>
</g>
</svg>
